
<svg xmlns="http://www.w3.org/2000/svg" version="1.1" id="svg2" xml:space="preserve" width="577.56641" height="500" viewBox="0 0 577.5664 500"><defs id="defs6"></defs><g id="g10" transform="matrix(1.3333333,0,0,-1.3333333,112.73913,537.08121)"><g id="g469" transform="matrix(1.9627856,0,0,1.9627856,-120.51444,-360.00019)"><g id="g385"><path d="m 228.066,293.111 c 0,-52.759 -42.769,-95.529 -95.528,-95.529 -52.7579,0 -95.529,42.77 -95.529,95.529 0,52.758 42.7711,95.526 95.529,95.526 52.759,0 95.528,-42.768 95.528,-95.526" style="fill:#bd2d68;fill-opacity:1;fill-rule:nonzero;stroke:none;stroke-width:0.1" id="path148"></path><path d="m 132.537,385.146 c -50.8311,0 -92.0343,-41.207 -92.0343,-92.036 0,-50.833 41.2032,-92.038 92.0343,-92.038 50.832,0 92.035,41.205 92.035,92.038 0,50.829 -41.203,92.036 -92.035,92.036 z m 0,-151.337 c -32.7538,0 -59.3018,26.549 -59.3018,59.301 0,32.75 26.548,59.298 59.3018,59.298 32.75,0 59.303,-26.548 59.303,-59.298 0,-32.752 -26.553,-59.301 -59.303,-59.301" style="fill:#c0c5cd;fill-opacity:1;fill-rule:nonzero;stroke:none;stroke-width:0.1" id="path150"></path><path d="m 188.811,293.089 c 0,-31.185 -25.279,-56.463 -56.463,-56.463 -31.185,0 -56.4632,25.278 -56.4632,56.463 0,31.181 25.2782,56.462 56.4632,56.462 31.184,0 56.463,-25.281 56.463,-56.462" style="fill:#ffffff;fill-opacity:1;fill-rule:nonzero;stroke:none;stroke-width:0.1" id="path152"></path><path d="m 78.9316,274.743 c 7.6145,-22.177 28.6524,-38.117 53.4164,-38.117 11.149,0 21.541,3.229 30.295,8.809 -6.061,22.935 -26.952,39.85 -51.799,39.85 -11.9553,0 -22.9963,-3.921 -31.9124,-10.542" style="fill:#14b3f0;fill-opacity:1;fill-rule:nonzero;stroke:none;stroke-width:0.1" id="path154"></path><path d="m 142.973,348.782 -5.171,-3.024 c -0.523,-0.303 -1.189,-0.128 -1.493,0.391 -0.305,0.516 -0.129,1.187 0.391,1.492 l 5.168,3.023 c 0.519,0.307 1.202,0.106 1.492,-0.39 0.29,-0.493 0.13,-1.187 -0.387,-1.492" style="fill:#bd2d68;fill-opacity:1;fill-rule:nonzero;stroke:none;stroke-width:0.1" id="path156"></path><path d="m 146.006,343.172 -4.213,2.885 c -0.422,0.293 -0.488,0.932 -0.151,1.427 0.337,0.496 0.962,0.664 1.383,0.375 l 4.215,-2.887 c 0.424,-0.291 0.474,-0.952 0.153,-1.427 -0.327,-0.473 -0.963,-0.664 -1.387,-0.373" style="fill:#bd2d68;fill-opacity:1;fill-rule:nonzero;stroke:none;stroke-width:0.1" id="path158"></path><path d="m 145.575,338.8 -4.393,2.604 c -0.444,0.262 -0.553,0.895 -0.244,1.414 0.304,0.514 0.914,0.725 1.357,0.464 l 4.394,-2.604 c 0.441,-0.261 0.536,-0.922 0.243,-1.414 -0.293,-0.491 -0.915,-0.724 -1.357,-0.464" style="fill:#bd2d68;fill-opacity:1;fill-rule:nonzero;stroke:none;stroke-width:0.1" id="path160"></path><path d="m 145.561,334.451 -4.674,2.051 c -0.471,0.207 -0.657,0.824 -0.416,1.375 0.242,0.546 0.82,0.833 1.293,0.625 l 4.675,-2.053 c 0.472,-0.204 0.643,-0.847 0.413,-1.373 -0.231,-0.522 -0.818,-0.832 -1.291,-0.625" style="fill:#bd2d68;fill-opacity:1;fill-rule:nonzero;stroke:none;stroke-width:0.1" id="path162"></path><path d="m 145.588,329.909 -4.719,1.947 c -0.478,0.193 -0.674,0.808 -0.445,1.363 0.227,0.556 0.801,0.85 1.274,0.655 l 4.724,-1.946 c 0.474,-0.194 0.66,-0.832 0.444,-1.364 -0.22,-0.528 -0.802,-0.848 -1.278,-0.655" style="fill:#bd2d68;fill-opacity:1;fill-rule:nonzero;stroke:none;stroke-width:0.1" id="path164"></path><path d="m 146.264,325.465 -4.858,1.577 c -0.49,0.16 -0.734,0.757 -0.55,1.328 0.188,0.569 0.737,0.908 1.222,0.75 l 4.861,-1.583 c 0.489,-0.157 0.725,-0.777 0.545,-1.323 -0.179,-0.543 -0.734,-0.909 -1.22,-0.749" style="fill:#bd2d68;fill-opacity:1;fill-rule:nonzero;stroke:none;stroke-width:0.1" id="path166"></path><path d="m 147.354,321.302 -5.008,0.999 c -0.507,0.104 -0.818,0.663 -0.701,1.254 0.119,0.588 0.623,0.986 1.127,0.888 l 5.007,-1 c 0.505,-0.103 0.811,-0.692 0.7,-1.254 -0.112,-0.56 -0.622,-0.989 -1.125,-0.887" style="fill:#bd2d68;fill-opacity:1;fill-rule:nonzero;stroke:none;stroke-width:0.1" id="path168"></path><path d="m 141.842,344.116 -4.706,-3.574 c -0.471,-0.363 -1.154,-0.26 -1.519,0.216 -0.362,0.475 -0.278,1.161 0.201,1.522 l 4.704,3.574 c 0.477,0.361 1.171,0.237 1.517,-0.219 0.347,-0.456 0.276,-1.162 -0.197,-1.519" style="fill:#bd2d68;fill-opacity:1;fill-rule:nonzero;stroke:none;stroke-width:0.1" id="path170"></path><path d="m 141.34,339.242 -4.418,-3.825 c -0.446,-0.385 -1.129,-0.325 -1.523,0.129 -0.391,0.454 -0.352,1.134 0.093,1.523 l 4.419,3.82 c 0.448,0.389 1.144,0.308 1.521,-0.126 0.375,-0.431 0.352,-1.138 -0.092,-1.521" style="fill:#bd2d68;fill-opacity:1;fill-rule:nonzero;stroke:none;stroke-width:0.1" id="path172"></path><path d="m 141.11,334.521 -4.082,-4.228 c -0.414,-0.424 -1.098,-0.43 -1.531,-0.012 -0.429,0.418 -0.45,1.101 -0.042,1.526 l 4.088,4.23 c 0.411,0.428 1.117,0.41 1.527,0.011 0.414,-0.399 0.451,-1.102 0.04,-1.527" style="fill:#bd2d68;fill-opacity:1;fill-rule:nonzero;stroke:none;stroke-width:0.1" id="path174"></path><path d="m 141.453,329.807 -3.648,-4.539 c -0.365,-0.454 -1.045,-0.517 -1.514,-0.14 -0.465,0.374 -0.555,1.052 -0.184,1.509 l 3.644,4.537 c 0.365,0.461 1.068,0.503 1.515,0.144 0.447,-0.358 0.553,-1.055 0.187,-1.511" style="fill:#bd2d68;fill-opacity:1;fill-rule:nonzero;stroke:none;stroke-width:0.1" id="path176"></path><path d="m 142.039,325.001 -3.239,-4.845 c -0.33,-0.489 -1.002,-0.61 -1.501,-0.277 -0.501,0.334 -0.642,1.003 -0.313,1.49 l 3.241,4.845 c 0.326,0.488 1.02,0.597 1.499,0.279 0.476,-0.321 0.641,-1.003 0.313,-1.492" style="fill:#bd2d68;fill-opacity:1;fill-rule:nonzero;stroke:none;stroke-width:0.1" id="path178"></path><path d="m 143.16,320.463 -2.885,-5.242 c -0.29,-0.53 -0.957,-0.723 -1.481,-0.432 -0.527,0.288 -0.722,0.953 -0.43,1.481 l 2.883,5.248 c 0.291,0.527 0.983,0.707 1.485,0.43 0.502,-0.276 0.717,-0.953 0.428,-1.485" style="fill:#bd2d68;fill-opacity:1;fill-rule:nonzero;stroke:none;stroke-width:0.1" id="path180"></path><path d="m 104.393,294.027 -0.159,5.981 c -0.015,0.601 0.459,1.104 1.062,1.12 0.599,0.018 1.104,-0.46 1.118,-1.06 l 0.163,-5.989 c 0.017,-0.6 -0.489,-1.102 -1.063,-1.118 -0.573,-0.015 -1.102,0.46 -1.121,1.066" style="fill:#bd2d68;fill-opacity:1;fill-rule:nonzero;stroke:none;stroke-width:0.1" id="path182"></path><path d="m 94.3906,296.547 4.3992,2.596 c 0.4415,0.26 1.0508,0.053 1.3562,-0.464 0.306,-0.519 0.197,-1.152 -0.2476,-1.413 l -4.3972,-2.598 c -0.4446,-0.261 -1.0649,-0.029 -1.3539,0.467 -0.2938,0.495 -0.1981,1.15 0.2433,1.412" style="fill:#bd2d68;fill-opacity:1;fill-rule:nonzero;stroke:none;stroke-width:0.1" id="path184"></path><path d="m 90.5871,298.654 4.0508,3.11 c 0.409,0.313 1.0348,0.179 1.4043,-0.297 0.3629,-0.475 0.334,-1.119 -0.0754,-1.433 l -4.0508,-3.109 c -0.407,-0.317 -1.0519,-0.157 -1.4023,0.3 -0.3504,0.451 -0.336,1.116 0.0734,1.429" style="fill:#bd2d68;fill-opacity:1;fill-rule:nonzero;stroke:none;stroke-width:0.1" id="path186"></path><path d="m 86.5957,300.816 3.9785,3.202 c 0.4004,0.323 1.0332,0.202 1.4094,-0.265 0.3766,-0.467 0.3609,-1.114 -0.0402,-1.435 l -3.9778,-3.201 c -0.4011,-0.32 -1.0523,-0.181 -1.4101,0.266 -0.3582,0.446 -0.3614,1.112 0.0402,1.433" style="fill:#bd2d68;fill-opacity:1;fill-rule:nonzero;stroke:none;stroke-width:0.1" id="path188"></path><path d="m 82.3738,302.37 3.7246,3.493 c 0.3735,0.355 1.0141,0.28 1.4231,-0.156 0.4121,-0.439 0.4453,-1.08 0.0703,-1.434 l -3.7238,-3.495 c -0.375,-0.354 -1.034,-0.258 -1.4254,0.16 -0.3926,0.418 -0.4438,1.08 -0.0688,1.432" style="fill:#bd2d68;fill-opacity:1;fill-rule:nonzero;stroke:none;stroke-width:0.1" id="path190"></path><path d="m 78.202,303.417 3.2902,3.908 c 0.3308,0.394 0.9715,0.397 1.4316,0.012 0.4629,-0.389 0.5676,-1.023 0.2364,-1.414 l -3.2891,-3.909 c -0.3313,-0.392 -0.9949,-0.377 -1.4348,-0.01 -0.4394,0.369 -0.5683,1.021 -0.2343,1.413" style="fill:#bd2d68;fill-opacity:1;fill-rule:nonzero;stroke:none;stroke-width:0.1" id="path192"></path><path d="m 100.848,297.261 -0.8644,5.844 c -0.0891,0.589 0.3274,1.138 0.9204,1.226 0.593,0.088 1.151,-0.317 1.237,-0.903 l 0.866,-5.851 c 0.086,-0.588 -0.356,-1.141 -0.921,-1.222 -0.569,-0.087 -1.15,0.315 -1.238,0.906" style="fill:#bd2d68;fill-opacity:1;fill-rule:nonzero;stroke:none;stroke-width:0.1" id="path194"></path><path d="m 96.8176,300.047 -1.2219,5.716 c -0.1211,0.575 0.2578,1.144 0.8457,1.269 0.5887,0.124 1.168,-0.239 1.2891,-0.814 l 1.2246,-5.715 c 0.1211,-0.571 -0.2871,-1.151 -0.8477,-1.27 -0.5586,-0.117 -1.1648,0.236 -1.2898,0.814" style="fill:#bd2d68;fill-opacity:1;fill-rule:nonzero;stroke:none;stroke-width:0.1" id="path196"></path><path d="m 92.791,302.518 -1.7355,5.618 c -0.1766,0.565 0.1515,1.169 0.7238,1.345 0.5723,0.178 1.1855,-0.134 1.3613,-0.7 l 1.7371,-5.615 c 0.175,-0.564 -0.1812,-1.177 -0.7246,-1.348 -0.5496,-0.166 -1.1863,0.137 -1.3621,0.7" style="fill:#bd2d68;fill-opacity:1;fill-rule:nonzero;stroke:none;stroke-width:0.1" id="path198"></path><path d="m 88.498,304.494 -2.2199,5.379 c -0.2242,0.54 0.0512,1.167 0.6035,1.397 0.5539,0.23 1.1899,-0.021 1.4161,-0.563 l 2.216,-5.381 c 0.2254,-0.543 -0.0723,-1.178 -0.6043,-1.397 -0.5278,-0.22 -1.1875,0.023 -1.4114,0.565" style="fill:#bd2d68;fill-opacity:1;fill-rule:nonzero;stroke:none;stroke-width:0.1" id="path200"></path><path d="m 84.0012,306.291 -2.6828,5.177 c -0.2723,0.522 -0.0547,1.171 0.4793,1.444 0.5324,0.278 1.1859,0.082 1.4574,-0.439 l 2.6824,-5.177 c 0.2723,-0.518 0.032,-1.184 -0.4777,-1.446 -0.5078,-0.264 -1.1875,-0.078 -1.4586,0.441" style="fill:#bd2d68;fill-opacity:1;fill-rule:nonzero;stroke:none;stroke-width:0.1" id="path202"></path><path d="m 79.6016,307.386 -2.72,4.593 c -0.2753,0.466 -0.0894,1.109 0.4028,1.442 0.4949,0.334 1.1199,0.231 1.3922,-0.231 l 2.7207,-4.59 c 0.2754,-0.464 0.0703,-1.127 -0.4012,-1.444 -0.4727,-0.316 -1.1211,-0.233 -1.3945,0.23" style="fill:#bd2d68;fill-opacity:1;fill-rule:nonzero;stroke:none;stroke-width:0.1" id="path204"></path><path d="m 120.684,238.051 -4.132,3.146 c -0.413,0.316 -0.487,0.996 -0.16,1.509 0.327,0.517 0.932,0.682 1.347,0.365 l 4.136,-3.143 c 0.414,-0.317 0.47,-1.021 0.158,-1.513 -0.312,-0.489 -0.928,-0.682 -1.349,-0.364" style="fill:#bd2d68;fill-opacity:1;fill-rule:nonzero;stroke:none;stroke-width:0.1" id="path206"></path><path d="m 121.546,242.74 -4.337,2.858 c -0.438,0.286 -0.556,0.959 -0.266,1.493 0.292,0.539 0.884,0.745 1.32,0.457 l 4.339,-2.855 c 0.437,-0.288 0.54,-0.985 0.261,-1.496 -0.276,-0.511 -0.882,-0.743 -1.317,-0.457" style="fill:#bd2d68;fill-opacity:1;fill-rule:nonzero;stroke:none;stroke-width:0.1" id="path208"></path><path d="m 122.216,247.427 -4.603,2.408 c -0.465,0.24 -0.648,0.899 -0.413,1.464 0.238,0.56 0.808,0.826 1.267,0.584 l 4.605,-2.408 c 0.46,-0.243 0.635,-0.926 0.408,-1.465 -0.227,-0.538 -0.802,-0.826 -1.264,-0.583" style="fill:#bd2d68;fill-opacity:1;fill-rule:nonzero;stroke:none;stroke-width:0.1" id="path210"></path><path d="m 122.422,252.24 -4.813,1.946 c -0.486,0.195 -0.734,0.832 -0.552,1.416 0.181,0.583 0.719,0.9 1.2,0.707 l 4.819,-1.947 c 0.483,-0.196 0.723,-0.86 0.551,-1.415 -0.17,-0.558 -0.721,-0.904 -1.205,-0.707" style="fill:#bd2d68;fill-opacity:1;fill-rule:nonzero;stroke:none;stroke-width:0.1" id="path212"></path><path d="m 122.222,257.041 -4.962,1.535 c -0.496,0.154 -0.798,0.768 -0.669,1.364 0.131,0.596 0.643,0.958 1.139,0.805 l 4.965,-1.534 c 0.498,-0.156 0.791,-0.794 0.668,-1.364 -0.123,-0.569 -0.64,-0.961 -1.141,-0.806" style="fill:#bd2d68;fill-opacity:1;fill-rule:nonzero;stroke:none;stroke-width:0.1" id="path214"></path><path d="m 121.475,261.641 -5.058,1.182 c -0.511,0.12 -0.849,0.708 -0.763,1.313 0.087,0.606 0.569,1.003 1.08,0.884 l 5.059,-1.182 c 0.507,-0.118 0.846,-0.736 0.762,-1.315 -0.082,-0.573 -0.573,-1.002 -1.08,-0.882" style="fill:#bd2d68;fill-opacity:1;fill-rule:nonzero;stroke:none;stroke-width:0.1" id="path216"></path><path d="m 120.547,266.302 -5.154,0.642 c -0.519,0.064 -0.92,0.617 -0.894,1.224 0.022,0.611 0.462,1.059 0.978,0.993 l 5.155,-0.641 c 0.52,-0.066 0.919,-0.645 0.897,-1.227 -0.021,-0.584 -0.461,-1.055 -0.982,-0.991" style="fill:#bd2d68;fill-opacity:1;fill-rule:nonzero;stroke:none;stroke-width:0.1" id="path218"></path><path d="m 123.999,274.153 -1.919,-4.823 c -0.193,-0.486 -0.828,-0.738 -1.41,-0.56 -0.587,0.176 -0.907,0.715 -0.714,1.197 l 1.921,4.828 c 0.192,0.484 0.853,0.727 1.409,0.559 0.56,-0.168 0.908,-0.713 0.713,-1.201" style="fill:#bd2d68;fill-opacity:1;fill-rule:nonzero;stroke:none;stroke-width:0.1" id="path220"></path><path d="m 125.774,269.212 -2.592,-4.596 c -0.262,-0.462 -0.934,-0.628 -1.502,-0.368 -0.563,0.255 -0.814,0.843 -0.553,1.304 l 2.596,4.598 c 0.261,0.46 0.959,0.614 1.497,0.368 0.538,-0.247 0.814,-0.841 0.554,-1.306" style="fill:#bd2d68;fill-opacity:1;fill-rule:nonzero;stroke:none;stroke-width:0.1" id="path222"></path><path d="m 127.399,264.624 -3.182,-4.737 c -0.321,-0.475 -1.047,-0.596 -1.617,-0.27 -0.57,0.324 -0.775,0.975 -0.454,1.452 l 3.181,4.736 c 0.322,0.475 1.075,0.581 1.617,0.272 0.545,-0.311 0.777,-0.977 0.455,-1.453" style="fill:#bd2d68;fill-opacity:1;fill-rule:nonzero;stroke:none;stroke-width:0.1" id="path224"></path><path d="m 128.254,259.371 -3.64,-4.396 c -0.364,-0.442 -1.1,-0.491 -1.634,-0.111 -0.536,0.382 -0.676,1.05 -0.307,1.491 l 3.64,4.398 c 0.365,0.44 1.123,0.47 1.634,0.11 0.508,-0.365 0.675,-1.052 0.307,-1.492" style="fill:#bd2d68;fill-opacity:1;fill-rule:nonzero;stroke:none;stroke-width:0.1" id="path226"></path><path d="m 128.568,254.158 -3.926,-4.14 c -0.397,-0.414 -1.132,-0.413 -1.639,0 -0.509,0.417 -0.604,1.094 -0.209,1.509 l 3.928,4.141 c 0.397,0.417 1.154,0.396 1.637,0 0.488,-0.395 0.603,-1.092 0.209,-1.51" style="fill:#bd2d68;fill-opacity:1;fill-rule:nonzero;stroke:none;stroke-width:0.1" id="path228"></path><path d="m 128.723,248.823 -4.425,-3.751 c -0.444,-0.376 -1.176,-0.299 -1.633,0.175 -0.456,0.475 -0.47,1.163 -0.026,1.541 l 4.424,3.751 c 0.446,0.376 1.197,0.276 1.633,-0.175 0.438,-0.45 0.468,-1.164 0.027,-1.541" style="fill:#bd2d68;fill-opacity:1;fill-rule:nonzero;stroke:none;stroke-width:0.1" id="path230"></path><path d="m 128.238,243.6 -4.695,-3.48 c -0.473,-0.35 -1.202,-0.223 -1.626,0.28 -0.419,0.503 -0.383,1.197 0.091,1.548 l 4.695,3.48 c 0.476,0.35 1.22,0.2 1.624,-0.283 0.403,-0.478 0.385,-1.197 -0.089,-1.545" style="fill:#bd2d68;fill-opacity:1;fill-rule:nonzero;stroke:none;stroke-width:0.1" id="path232"></path><path d="m 127.4,238.428 -4.92,-2.888 c -0.494,-0.289 -1.202,-0.084 -1.575,0.454 -0.372,0.539 -0.274,1.217 0.221,1.507 l 4.92,2.89 c 0.495,0.291 1.217,0.065 1.573,-0.452 0.354,-0.512 0.277,-1.214 -0.219,-1.511" style="fill:#bd2d68;fill-opacity:1;fill-rule:nonzero;stroke:none;stroke-width:0.1" id="path234"></path><path d="m 157.749,294.825 4.784,2.016 c 0.484,0.202 1.106,-0.077 1.391,-0.616 0.284,-0.539 0.127,-1.145 -0.359,-1.348 l -4.785,-2.018 c -0.479,-0.2 -1.117,0.102 -1.388,0.616 -0.269,0.518 -0.129,1.148 0.357,1.35" style="fill:#bd2d68;fill-opacity:1;fill-rule:nonzero;stroke:none;stroke-width:0.1" id="path236"></path><path d="m 161.385,291.743 4.636,2.336 c 0.471,0.237 1.11,0 1.43,-0.518 0.32,-0.522 0.202,-1.136 -0.265,-1.371 l -4.635,-2.336 c -0.469,-0.237 -1.121,0.022 -1.428,0.516 -0.305,0.496 -0.206,1.135 0.262,1.373" style="fill:#bd2d68;fill-opacity:1;fill-rule:nonzero;stroke:none;stroke-width:0.1" id="path238"></path><path d="m 165.115,288.828 4.381,2.787 c 0.444,0.282 1.102,0.112 1.474,-0.375 0.369,-0.481 0.312,-1.108 -0.13,-1.388 l -4.38,-2.791 c -0.44,-0.277 -1.117,-0.084 -1.471,0.377 -0.355,0.461 -0.317,1.111 0.126,1.39" style="fill:#bd2d68;fill-opacity:1;fill-rule:nonzero;stroke:none;stroke-width:0.1" id="path240"></path><path d="m 169.184,286.244 4.087,3.207 c 0.411,0.321 1.084,0.218 1.5,-0.229 0.418,-0.447 0.423,-1.07 0.012,-1.396 l -4.087,-3.204 c -0.411,-0.321 -1.102,-0.198 -1.503,0.23 -0.395,0.426 -0.422,1.071 -0.009,1.392" style="fill:#bd2d68;fill-opacity:1;fill-rule:nonzero;stroke:none;stroke-width:0.1" id="path242"></path><path d="m 173.443,284.027 3.805,3.536 c 0.382,0.354 1.066,0.308 1.516,-0.102 0.454,-0.409 0.509,-1.035 0.128,-1.388 l -3.802,-3.538 c -0.383,-0.355 -1.086,-0.287 -1.518,0.099 -0.43,0.393 -0.511,1.036 -0.129,1.393" style="fill:#bd2d68;fill-opacity:1;fill-rule:nonzero;stroke:none;stroke-width:0.1" id="path244"></path><path d="m 177.803,282.381 3.549,3.797 c 0.357,0.381 1.037,0.381 1.517,0.004 0.482,-0.377 0.582,-0.997 0.225,-1.375 l -3.543,-3.796 c -0.358,-0.383 -1.062,-0.368 -1.522,-0.007 -0.455,0.357 -0.581,0.994 -0.226,1.377" style="fill:#bd2d68;fill-opacity:1;fill-rule:nonzero;stroke:none;stroke-width:0.1" id="path246"></path><path d="m 182.307,280.858 3.123,4.151 c 0.318,0.417 0.996,0.489 1.511,0.166 0.518,-0.323 0.685,-0.928 0.372,-1.347 l -3.124,-4.148 c -0.317,-0.414 -1.018,-0.474 -1.512,-0.166 -0.493,0.309 -0.688,0.929 -0.37,1.344" style="fill:#bd2d68;fill-opacity:1;fill-rule:nonzero;stroke:none;stroke-width:0.1" id="path248"></path><path d="m 186.909,274.477 -2.745,3.543 c -0.324,0.412 -0.226,1.087 0.221,1.507 0.443,0.417 1.071,0.429 1.395,0.017 l 2.743,-3.548 c 0.324,-0.408 0.207,-1.101 -0.218,-1.5 -0.424,-0.402 -1.07,-0.43 -1.396,-0.019" style="fill:#bd2d68;fill-opacity:1;fill-rule:nonzero;stroke:none;stroke-width:0.1" id="path250"></path><path d="m 182.222,274.879 -2.692,4.541 c -0.267,0.457 -0.077,1.122 0.427,1.485 0.508,0.359 1.14,0.284 1.41,-0.171 l 2.692,-4.541 c 0.27,-0.457 0.051,-1.141 -0.428,-1.484 -0.481,-0.344 -1.138,-0.287 -1.409,0.17" style="fill:#bd2d68;fill-opacity:1;fill-rule:nonzero;stroke:none;stroke-width:0.1" id="path252"></path><path d="m 177.434,275.759 -2.519,5.12 c -0.248,0.516 0.005,1.203 0.573,1.536 0.563,0.331 1.234,0.187 1.489,-0.33 l 2.512,-5.122 c 0.256,-0.517 -0.028,-1.218 -0.568,-1.535 -0.536,-0.317 -1.233,-0.184 -1.487,0.331" style="fill:#bd2d68;fill-opacity:1;fill-rule:nonzero;stroke:none;stroke-width:0.1" id="path254"></path><path d="m 172.452,277.638 -1.993,5.344 c -0.199,0.538 0.125,1.2 0.72,1.469 0.595,0.276 1.25,0.065 1.448,-0.472 l 1.995,-5.346 c 0.2,-0.541 -0.15,-1.214 -0.723,-1.473 -0.566,-0.262 -1.245,-0.062 -1.447,0.478" style="fill:#bd2d68;fill-opacity:1;fill-rule:nonzero;stroke:none;stroke-width:0.1" id="path256"></path><path d="m 167.781,279.96 -1.632,5.47 c -0.16,0.552 0.207,1.188 0.819,1.42 0.613,0.235 1.247,-0.022 1.414,-0.569 l 1.63,-5.47 c 0.16,-0.55 -0.235,-1.201 -0.819,-1.422 -0.584,-0.221 -1.249,0.022 -1.412,0.571" style="fill:#bd2d68;fill-opacity:1;fill-rule:nonzero;stroke:none;stroke-width:0.1" id="path258"></path><path d="m 163.08,282.486 -1.049,5.704 c -0.104,0.576 0.332,1.17 0.967,1.333 0.64,0.162 1.242,-0.175 1.35,-0.748 l 1.047,-5.702 c 0.103,-0.576 -0.361,-1.18 -0.966,-1.331 -0.61,-0.154 -1.243,0.17 -1.349,0.744" style="fill:#bd2d68;fill-opacity:1;fill-rule:nonzero;stroke:none;stroke-width:0.1" id="path260"></path><path d="m 158.792,285.516 -0.675,5.803 c -0.066,0.583 0.408,1.151 1.053,1.264 0.648,0.117 1.229,-0.26 1.295,-0.848 l 0.674,-5.805 c 0.07,-0.58 -0.434,-1.157 -1.049,-1.267 -0.617,-0.111 -1.231,0.265 -1.298,0.853" style="fill:#bd2d68;fill-opacity:1;fill-rule:nonzero;stroke:none;stroke-width:0.1" id="path262"></path><path d="m 154.73,288.814 -0.054,5.708 c -0.002,0.574 0.524,1.08 1.179,1.138 0.653,0.055 1.193,-0.368 1.198,-0.938 l 0.053,-5.709 c 0.005,-0.574 -0.554,-1.089 -1.18,-1.137 -0.621,-0.054 -1.191,0.364 -1.196,0.938" style="fill:#bd2d68;fill-opacity:1;fill-rule:nonzero;stroke:none;stroke-width:0.1" id="path264"></path><path d="m 190.964,231.626 -3.773,5.085 v 0 l -1.055,1.417 -7.684,-5.704 1.232,-1.658 3.232,2.4 c 1.077,-2.628 0.595,-5.436 -1.353,-6.797 -2.356,-1.637 -5.958,-0.54 -8.042,2.453 -2.082,2.993 -1.858,6.752 0.495,8.389 1.623,1.129 3.836,0.962 5.737,-0.232 l 4.24,3.144 c -3.044,1.492 -7.337,1.03 -10.962,-1.496 -4.859,-3.381 -6.672,-9.184 -4.043,-12.96 2.626,-3.776 8.696,-4.096 13.558,-0.712 1.827,1.27 3.1,2.881 3.595,5.07 l 0.942,-1.276 3.881,2.877" style="fill:#231f20;fill-opacity:1;fill-rule:nonzero;stroke:none;stroke-width:0.1" id="path266"></path><path d="m 140.794,224.345 c -2.45,0.177 -15.74,0.334 -18.162,0.161 l -0.019,-1.904 6.211,-0.052 -0.114,-14.002 5.709,-0.048 0.117,14.002 6.246,-0.051 0.012,1.894" style="fill:#231f20;fill-opacity:1;fill-rule:nonzero;stroke:none;stroke-width:0.1" id="path268"></path><path d="m 200.439,303.41 c -0.108,-2.458 0.11,-15.746 0.351,-18.166 l 1.904,0.039 -0.126,6.211 14.002,0.277 -0.114,5.709 -13.998,-0.279 -0.125,6.249 -1.894,-0.04" style="fill:#231f20;fill-opacity:1;fill-rule:nonzero;stroke:none;stroke-width:0.1" id="path270"></path><path d="m 121.093,224.768 c -2.308,0.84 -15.043,4.647 -17.422,5.148 l -0.537,-1.824 5.956,-1.758 -3.96,-13.434 5.479,-1.617 3.959,13.434 5.991,-1.767 0.534,1.818" style="fill:#231f20;fill-opacity:1;fill-rule:nonzero;stroke:none;stroke-width:0.1" id="path272"></path><path d="m 181.997,246.118 12.125,-10.513 3.741,4.313 -12.124,10.514 -3.742,-4.314" style="fill:#231f20;fill-opacity:1;fill-rule:nonzero;stroke:none;stroke-width:0.1" id="path274"></path><path d="m 81.5676,246.977 -4.0688,4.322 -11.8379,-11.142 9.7778,-10.391 1.8203,1.711 -5.7141,6.065 10.0227,9.435" style="fill:#231f20;fill-opacity:1;fill-rule:nonzero;stroke:none;stroke-width:0.1" id="path276"></path><path d="m 161.619,213.447 -0.658,2.374 -9.109,-2.517 -1.946,7.041 9.111,2.516 -0.478,1.736 -9.11,-2.514 -0.577,2.092 9.24,2.552 -0.588,2.121 c -2.032,-0.376 -12.8,-3.291 -14.7,-4.049 l 4.246,-15.376 3.471,0.959 v 0 l 11.098,3.065" style="fill:#231f20;fill-opacity:1;fill-rule:nonzero;stroke:none;stroke-width:0.1" id="path278"></path><path d="m 208.514,256.316 1.456,2.545 -18.007,0.839 -2.511,-4.328 9.712,-14.841 3.018,5.166 -2.003,3.146 4.594,7.64 z m -9.556,-5.552 -3.93,6.163 7.435,-0.335 z" style="fill:#231f20;fill-opacity:1;fill-rule:nonzero;stroke:none;stroke-width:0.1" id="path280"></path><path d="m 95.5547,236.216 c -5.1035,3.234 -11.3945,2.448 -14.0527,-1.749 -2.6524,-4.195 -0.6719,-10.217 4.4308,-13.451 5.1055,-3.23 11.3973,-2.447 14.0508,1.748 2.6624,4.201 0.6754,10.219 -4.4289,13.452 z M 95.1758,225.81 c -2.1074,-3.331 -5.8028,-4.772 -8.2492,-3.223 -2.4469,1.551 -2.7215,5.505 -0.6141,8.833 2.1094,3.329 5.8016,4.773 8.2512,3.225 2.4429,-1.549 2.7183,-5.506 0.6121,-8.835" style="fill:#231f20;fill-opacity:1;fill-rule:nonzero;stroke:none;stroke-width:0.1" id="path282"></path><path d="m 129.038,359.87 3.276,0.655 -12.514,15.495 -5.528,-0.873 -5.165,-18.916 6.475,1.022 1.18,4.103 9.718,1.698 z m -11.559,3.975 2.205,7.675 5.134,-6.393 z" style="fill:#231f20;fill-opacity:1;fill-rule:nonzero;stroke:none;stroke-width:0.1" id="path284"></path><path d="m 147.041,372.084 5.133,-15.323 6.561,-1.597 4.174,17.181 -6.148,1.492 -3.112,-12.796 -4.936,14.751 -6.88,1.671 -4.17,-17.179 6.148,-1.491 3.23,13.291" style="fill:#231f20;fill-opacity:1;fill-rule:nonzero;stroke:none;stroke-width:0.1" id="path286"></path><path d="m 200.546,269.737 13.819,4.189 1.623,5.89 -15.357,4.23 -1.515,-5.505 11.428,-3.148 -13.414,-4.065 -1.684,-6.107 15.356,-4.235 1.516,5.504 -11.772,3.247" style="fill:#231f20;fill-opacity:1;fill-rule:nonzero;stroke:none;stroke-width:0.1" id="path288"></path><path d="m 58.4891,311.6 c -0.586,1.192 -1.7293,2.084 -3.1629,2.289 -2.3106,0.328 -4.3938,-1.264 -4.7207,-3.549 l -2.1992,-15.432 17.7324,-2.529 1.8039,12.653 c 0.5488,3.839 -0.9438,8.625 -4.375,9.113 -2.3059,0.33 -3.9809,-0.331 -5.0785,-2.545 z m -7.0039,-11.052 0.9054,6.325 c 0.1836,1.288 1.3739,2.182 2.6641,1.999 1.2871,-0.184 2.1805,-1.376 1.9969,-2.663 l -0.8993,-6.325 z m 13.7257,4.655 -0.9238,-6.481 -5.7266,0.816 0.9258,6.482 c 0.2254,1.58 1.6914,2.68 3.2735,2.455 1.5773,-0.225 2.6757,-1.692 2.4511,-3.272" style="fill:#231f20;fill-opacity:1;fill-rule:nonzero;stroke:none;stroke-width:0.1" id="path290"></path><path d="m 62.6426,341.446 9.9492,-5.967 c 4.1562,-2.49 3.8426,-5.266 2.6789,-7.202 -1.1633,-1.942 -3.4652,-3.524 -7.6184,-1.035 l -9.9492,5.968 -3.3113,-5.521 10.0145,-6.004 c 5.0097,-3.005 10.125,0.865 12.8437,5.402 2.7246,4.54 3.7246,10.872 -1.2852,13.877 l -10.0128,6.004 -3.3094,-5.522" style="fill:#231f20;fill-opacity:1;fill-rule:nonzero;stroke:none;stroke-width:0.1" id="path292"></path><path d="m 93.7676,359.651 c -3.7395,-0.891 -8.4297,-4.763 -10.8875,-4.33 -2.459,0.431 -1.1985,3.416 2.2418,5.99 3.2074,2.403 5.3761,1.369 6.3437,0.297 l 4.1875,3.134 c -0.9734,1.014 -3.0261,1.797 -6.6519,0.791 -3.9512,-1.093 -8.4367,-5.178 -10.2746,-8.006 -1.8348,-2.829 -1.3106,-6.747 2.4738,-7.736 3.7832,-0.984 10.4773,3.481 13.2801,4.533 2.8008,1.051 4.0371,0.433 3.8906,-1.133 -0.1477,-1.563 -3.5488,-5.151 -6.9895,-6.139 -2.7175,-0.776 -3.7984,0.346 -4.5398,1.512 l -4.2148,-3.155 c 2.2988,-3.4 5.9562,-2.244 10.4968,-0.14 4.7871,2.22 10.7212,7.657 9.3822,11.745 -1.333,4.09 -5.0001,3.527 -8.7384,2.637" style="fill:#231f20;fill-opacity:1;fill-rule:nonzero;stroke:none;stroke-width:0.1" id="path294"></path><path d="m 201.93,322.262 c -0.457,-3.417 1.815,-10.126 0.657,-12.078 -1.164,-1.951 -3.462,-0.322 -4.58,3.337 -1.047,3.42 0,5.125 1.235,5.625 l -1.364,4.456 c -1.189,-0.521 -1.982,-2.203 -2.276,-5.56 -0.324,-3.658 1.999,-8.384 3.854,-10.767 1.853,-2.382 5.182,-3.357 7.246,-0.447 2.066,2.903 -0.188,10.046 -0.196,12.721 -0.013,2.676 0.92,3.538 2.221,2.953 1.306,-0.582 3.493,-4.465 3.243,-7.66 -0.2,-2.522 -1.156,-2.922 -2.404,-3.201 l 1.456,-4.584 c 2.912,0.582 3.639,3.838 3.274,8.293 -0.382,4.698 -3.42,11.131 -6.982,11.785 -3.897,0.719 -5.092,-2.692 -5.384,-4.873" style="fill:#231f20;fill-opacity:1;fill-rule:nonzero;stroke:none;stroke-width:0.1" id="path296"></path><path d="m 161.338,351.213 c 3.346,1.092 66.452,19.533 72.017,20.842 5.563,1.309 7.53,0.652 3.603,-5.02 0.76,-3.597 -0.655,-4.8 -5.784,-8.947 -2.62,-7.092 -13.021,-21.06 -48.157,-31.097 -2.837,-7.205 -20.588,-28.372 -22.113,-29.79 -2.766,-7.095 -10.549,-15.748 -10.549,-15.748 0.87,-1.129 2.909,-6.624 2.909,-6.624 10.363,-1.305 19.312,-3.927 19.312,-3.927 0,0 5.203,-1.671 1.2,-7.31 0,-3.49 -3.053,-5.894 -3.706,-7.638 -0.657,-1.747 -3.82,-3.385 -3.82,-3.385 -0.223,-2.508 -2.732,-5.238 -6.113,-5.238 -0.873,-2.292 -3.926,-3.271 -5.457,-3.163 -1.526,0.11 -3.052,-1.417 -5.128,-2.072 -2.072,-0.656 -4.361,0 -5.019,1.308 -0.656,1.312 -3.965,2.11 -4.508,3.638 -0.548,1.529 1.125,9.894 1.125,9.894 -2.398,2.072 -2.291,6.11 -4.472,6.656 -2.182,0.545 -2.838,2.946 -2.294,4.91 -1.926,0.653 -3.054,2.293 -3.054,2.293 -6.111,-1.747 -15.06,-1.42 -16.913,-0.658 -6.112,-2.071 -22.5506,-4.984 -30.2619,-4.688 -29.3164,-25.465 -46.7762,-28.519 -50.7742,-25.027 -8.8047,-4.438 -9.4606,-0.144 -9.4606,-0.144 -3.9277,-2.473 -8.2918,0.875 -3.4898,4.217 4.8004,3.348 54.2707,49.178 54.2707,49.178 0,0 6.0332,7.275 11.1258,5.818 5.0918,-1.455 15.495,-3.855 28.732,2.037 0.586,5.385 -3.778,7.856 -4.362,12.076 -0.581,4.22 -2.328,7.711 -6.547,11.639 -4.2184,3.927 -6.4,9.75 -0.437,8.73 5.966,-1.019 8.731,-8.002 17.316,-8.293 8.581,-0.291 5.674,-7.709 14.257,-11.345 10.039,5.89 14.84,18.619 16.73,27.347 1.891,8.734 6.476,8.442 9.822,9.531" style="fill:#231f20;fill-opacity:1;fill-rule:nonzero;stroke:none;stroke-width:0.1" id="path298"></path><path d="m 107.217,326.045 c 0.025,0.305 0.047,1.019 0.063,1.421 -1.46,0.727 -3.324,1.719 -3.557,1.85 -0.255,0.148 -1.274,0.256 -0.327,-0.909 0.68,-0.836 2.032,-2.293 2.554,-2.939 1.111,0.03 1.234,0.187 1.267,0.577" style="fill:#ba2e68;fill-opacity:1;fill-rule:nonzero;stroke:none;stroke-width:0.1" id="path300"></path><path d="m 114.234,322.772 c -0.712,0.543 -4.527,3.365 -6.246,4.332 -0.217,-0.192 -0.197,-0.747 -0.119,-1.169 0.111,-0.581 -0.399,-0.764 -0.946,-0.764 -0.211,0 -0.351,-0.151 -0.446,-0.334 0.982,-1.051 3.574,-3.614 3.758,-4.104 0.218,-0.583 0.583,-1.453 1.128,-0.655 0.543,0.799 2.291,1.565 2.982,1.677 0.69,0.105 0.656,0.434 -0.111,1.017 z m 1.639,1.926 c -0.583,0.291 -5.276,3.163 -6.185,3.82 -0.909,0.652 -3.567,2.216 -4.546,3.052 -0.982,0.84 -3.712,1.64 -3.783,0.11 -0.073,-1.528 0.584,-1.82 0.875,-1.236 0.28,0.558 0.909,0.583 1.782,0.037 0.873,-0.545 5.781,-3.674 6.873,-4.291 1.092,-0.621 4.401,-2.947 4.693,-3.129 0.291,-0.181 0.873,-0.692 0.947,0.075 0.072,0.763 -0.074,1.273 -0.656,1.562" style="fill:#fff200;fill-opacity:1;fill-rule:nonzero;stroke:none;stroke-width:0.1" id="path302"></path><path d="m 145.081,263.737 c -0.476,0.074 -0.949,0.4 -1.892,1.345 -0.946,0.946 -2.728,0.874 -3.382,1.602 -0.656,0.727 0.617,1.564 1.634,1.672 1.02,0.108 0.727,1.199 0.327,1.455 -0.4,0.254 -1.09,1.347 -2.074,2.003 -0.979,0.652 -1.201,-0.185 -0.726,-0.875 0,0 0.437,-0.473 0.726,-0.802 0.294,-0.326 0.294,-0.762 -0.217,-0.871 -0.509,-0.111 -1.707,-0.363 -2.834,-0.691 -1.129,-0.327 -0.909,-2.619 -0.111,-2.947 0.802,-0.325 1.491,-0.763 2.327,-1.491 0.835,-0.726 1.782,-3.674 2.11,-4.658 0.328,-0.978 1.566,-0.58 1.566,0 0,0.585 0.217,0.912 1.162,0.766 0.946,-0.143 2.473,0.509 1.235,1.056 -1.235,0.545 0,1.598 0.364,1.816 0.364,0.219 0.257,0.546 -0.215,0.62 z m 8.4,5.129 c -0.475,-0.254 -1.418,0.509 -1.78,1.055 -0.366,0.545 -1.857,1.856 -2.475,2.036 -0.62,0.181 -2.221,0.873 -2.326,1.745 -0.111,0.876 0.762,0 1.234,-0.143 0.472,-0.147 0.692,0.293 0.509,0.69 -0.18,0.399 -1.78,2.619 -2.728,2.981 -0.945,0.368 -1.493,-0.382 -1.019,-0.945 0.4,-0.471 0.913,-0.399 1.235,-0.909 0.331,-0.509 0,-0.584 -0.471,-0.871 -0.469,-0.293 -1.668,-1.896 -0.254,-2.912 1.42,-1.017 2.985,-4.291 3.2,-5.419 0.22,-1.126 1.385,-0.798 1.599,-0.474 0.221,0.328 0.437,0.183 0.551,-0.146 0.107,-0.325 0.798,-0.325 1.668,0.11 0.875,0.438 -0.07,0.692 -0.106,1.456 -0.039,0.763 0.946,1.2 1.309,1.382 0.364,0.184 0.325,0.617 -0.146,0.364" style="fill:#fff200;fill-opacity:1;fill-rule:nonzero;stroke:none;stroke-width:0.1" id="path304"></path><path d="m 122.405,323.663 c -0.171,0.091 -0.335,0.157 -0.486,0.191 -0.101,-0.406 -0.355,-0.795 -0.669,-1.033 0.41,0.111 0.883,0.351 1.155,0.842 z m 96.656,38.189 c -2.726,-0.22 -12.765,-4.147 -14.297,-1.69 -1.311,2.115 -42.478,-9.605 -45.537,-10.769 -3.051,-1.161 -5.963,-2.327 -6.254,-7.275 -0.293,-4.947 -6.547,-18.623 -9.457,-21.968 -2.911,-3.345 -6.692,-6.255 -8.293,-6.546 -1.601,-0.291 -2.64,-2.545 -2.64,-2.545 0,1.525 0.874,1.746 0.11,2.51 -0.763,0.766 -3.111,0.872 -4.309,2.565 -1.077,1.518 -3.853,6.21 -5.83,7.439 -0.412,-0.663 -1.297,-1.653 -2.408,-1.084 -0.91,0.462 -1.08,1.365 -1.392,1.941 -0.456,0.306 -0.906,0.331 -1.245,0.268 -0.581,-0.112 -0.111,-1.018 -0.111,-1.601 0,-0.581 0.62,-0.4 0.547,-1.018 -0.073,-0.619 0,-0.727 -1.416,-0.835 -1.423,-0.11 -4.767,-1.495 -5.383,-2.803 -0.113,-1.527 0.217,-4.656 1.924,-7.345 1.709,-2.693 2.984,-5.984 3.148,-8.276 0.162,-2.292 1.418,-6.056 1.773,-6.465 -0.955,1.064 -2.154,1.553 -1.773,1.827 0.383,0.274 0.49,0.192 0.137,0.709 -0.357,0.518 -0.903,0.686 -1.576,0.381 -8.508,-3.855 -23.1294,-3.273 -27.3688,-1.687 -3.5235,1.312 -3.9661,0.551 -5.3465,-0.328 -5.4028,-3.442 -31.5903,-29.08 -35.9543,-32.357 -1.9766,-1.485 -2.4727,-2.581 -2.9473,-3.163 -0.4707,-0.584 -1.5266,-2.258 4.5117,0.582 -13.1679,-10.876 -17.8984,-15.424 2.3282,-3.202 -6.9141,-5.713 -4.9485,-5.964 -6.618,-7.27 -1.6781,-1.315 -5.7844,-4.915 -1.6418,-3.315 3.666,1.415 9.3664,5.697 11.1297,7.584 -5.9434,-6.602 -1.9051,-4.964 -4.0352,-7.11 -1.2871,-1.298 -4.2566,-3.892 -0.9082,-2.691 3.3457,1.199 8.5988,7.183 8.5988,7.183 -1.5273,-4.036 -5.4503,-8.073 0.386,-4.31 -0.511,-0.947 -1.4922,-1.857 0.7262,-0.69 2.2207,1.165 19.6046,11.638 25.714,18.839 10.8399,0.074 26.5535,2.618 30.5545,4.511 3.927,-1.528 12.295,-0.364 13.605,-0.071 1.307,0.289 1.38,0.727 0.654,1.816 -0.728,1.092 -1.458,3.492 -1.458,3.492 2.184,-2.836 8.077,-7.639 11.205,-6.981 -1.09,2.109 -0.071,3.563 1.237,3.42 1.31,-0.148 3.274,-2.695 3.928,-3.569 0.652,-0.87 0.289,-2.18 -0.836,-2.327 -1.128,-0.146 -1.018,-0.291 0,-0.653 1.017,-0.364 2.545,-2.473 3.528,-2.184 0.983,0.291 1.419,1.018 1.419,-0.4 0,-1.416 -1.346,-1.888 -0.764,-2.289 0.579,-0.4 -0.328,-3.42 -1.638,-2.875 -1.309,0.546 -1.709,-2.982 -1.709,-3.748 0,-0.76 -2.036,-8.073 -0.438,-8.947 1.601,-0.875 2.401,0.581 2.401,0.581 1.164,-2.256 2.983,-2.69 4.876,-2.47 1.889,0.214 1.963,2.982 1.963,2.982 2.11,-2.4 3.928,-2.256 5.819,-1.383 1.891,0.871 1.454,2.91 1.454,2.91 3.058,-1.018 6.548,1.601 6.331,5.601 2.689,0 4.874,3.2 4.585,5.529 2.255,0.656 3.198,3.273 0.87,4.364 3.494,0.145 4.217,3.783 1.673,5.02 -2.543,1.236 -20.004,4.656 -20.004,4.656 -0.728,2.983 -3.564,7.782 -3.564,7.782 1.526,1.164 8.691,9.968 11.639,16.951 7.312,8.077 19.531,22.805 22.041,29.515 9.603,2.075 23.571,7.913 24.223,8.239 0.658,0.329 1.094,0.873 0.327,1.037 -0.763,0.163 -1.743,0.219 -2.071,0 -0.329,-0.218 -1.42,0.219 0.546,0.711 1.963,0.49 8.948,4.201 5.184,3.437 0.653,0.926 2.291,2.62 -7.586,1.145 16.207,4.089 14.965,5.647 12.549,5.129 -3.547,-0.764 -3.274,-0.164 -2.562,0.873 0.708,1.037 -6.659,-0.711 -10.041,-1.255 9.164,2.671 19.698,6.547 11.892,6.547 2.02,3.272 -3.164,-0.275 -13.801,0 12.821,3.438 19.038,4.583 19.97,6.602 0.391,0.852 0.434,1.034 -2.294,0.817 z m -69.325,-87.566 c -0.103,-1.795 1.11,-1.565 1.671,-2.257 0.802,-0.984 1.457,-2.218 2.619,-1.709 1.164,0.509 1.164,-1.708 0.51,-2.254 -0.656,-0.546 0.439,-1.675 -1.092,-3.348 -1.527,-1.672 -2.291,-0.327 -3.927,-0.907 -1.634,-0.584 -2.441,2.508 -2.654,3.309 -0.22,0.8 -2.258,2.326 -3.493,4.146 -1.237,1.82 -0.181,3.127 0.256,3.276 0.437,0.143 0.632,0.713 0.178,1.162 -0.215,0.218 -1.167,1.25 0.259,2.584 1.708,1.6 5.733,-2.949 5.673,-4.002" style="fill:#ffffff;fill-opacity:1;fill-rule:nonzero;stroke:none;stroke-width:0.1" id="path306"></path><path d="m 158.574,345.394 c -1.019,0.509 -1.019,0.29 -1.2,0.218 -0.183,-0.073 -0.802,0.22 -0.034,0.802 0.76,0.578 3.451,1.416 4.908,0.869 1.453,-0.543 1.963,-0.691 1.636,-0.291 -0.329,0.401 -1.529,0.875 -2.436,0.911 -0.909,0.038 -0.585,0.401 1.161,1.311 4.393,2.281 33.284,9.07 42.247,10.823 -0.033,0.039 -0.061,0.081 -0.092,0.125 -1.311,2.115 -42.478,-9.605 -45.537,-10.769 -3.051,-1.161 -5.963,-2.327 -6.254,-7.275 -0.293,-4.947 -6.547,-18.623 -9.457,-21.968 -2.911,-3.345 -6.692,-6.255 -8.293,-6.546 -1.601,-0.291 -2.64,-2.545 -2.64,-2.545 0,1.525 0.874,1.746 0.11,2.51 -0.763,0.766 -3.111,0.872 -4.309,2.565 -1.077,1.518 -3.853,6.21 -5.83,7.439 -0.412,-0.663 -1.297,-1.653 -2.408,-1.084 -0.91,0.462 -1.08,1.365 -1.392,1.941 -0.456,0.306 -0.906,0.331 -1.245,0.268 -0.581,-0.112 -0.111,-1.018 -0.111,-1.601 0,-0.501 0.459,-0.438 0.54,-0.807 0.994,-0.667 1.505,-1.541 1.772,-2.231 0.382,-0.98 3.274,-2.616 4.692,-2.455 1.416,0.166 0.272,-1.307 -1.364,-1.526 -1.638,-0.219 -2.674,-1.312 -2.454,-1.527 0.217,-0.216 0.381,-2.072 0.923,-2.838 0.548,-0.763 0.984,-0.927 1.858,-0.327 0.873,0.598 2.673,0.219 4.092,-0.436 1.42,-0.655 1.253,-1.039 0.654,-1.529 -0.598,-0.489 -0.708,-1.586 -0.164,-1.035 0.545,0.546 1.526,1.035 1.526,0.435 0,-0.599 -1.797,-2.838 -1.905,-4.256 -0.111,-1.42 0.816,-2.672 1.689,-4.145 0.87,-1.47 1.638,-4.802 2.292,-2.835 0.652,1.96 0.652,7.801 1.363,10.035 0.71,2.238 1.802,4.364 4.422,4.859 2.62,0.491 9.893,8.981 13.747,16.98 3.855,8.006 3.129,15.498 7.493,15.935 z M 75.4094,287.38 c 0.4344,0.982 1.8523,3.71 2.8883,5.13 1.0382,1.415 1.2011,0.654 0.766,-0.549 -0.4387,-1.199 -0.1641,-1.035 1.5261,1.364 1.6903,2.398 4.9102,3.551 8.293,2.349 3.3231,-1.183 18.7632,-1.41 27.6852,2.824 -0.005,0.079 -0.072,0.188 -0.213,0.393 -0.357,0.518 -0.903,0.686 -1.576,0.381 -8.508,-3.855 -23.1294,-3.273 -27.3688,-1.687 -3.5235,1.312 -3.9661,0.551 -5.3465,-0.328 -5.4028,-3.442 -31.5903,-29.08 -35.9543,-32.357 -1.9766,-1.485 -2.4727,-2.581 -2.9473,-3.163 -0.0117,-0.014 -0.0203,-0.028 -0.0332,-0.043 0.327,-0.872 3.009,0.52 5.3789,2.443 3.0574,2.474 24.6633,23.351 25.8086,24.501 1.1457,1.14 1.5274,0.65 1.093,-1.258 z m 45.5556,-14.151 c 1.307,-2.4 -1.235,-1.381 -3.419,-0.216 -2.185,1.163 -1.528,1.962 -7.128,-0.292 -5.604,-2.255 -21.5352,-3.855 -24.8821,-4.292 -3.3418,-0.438 -2.1824,0.511 -1.3074,1.891 -3.1926,-3.952 -19.7449,-16.706 -27.5187,-21.477 -0.5008,-0.792 -1.0172,-1.366 0.9297,-0.345 2.2207,1.165 19.6046,11.638 25.714,18.839 10.8399,0.074 26.5535,2.618 30.5545,4.511 3.927,-1.528 12.295,-0.364 13.605,-0.071 0.785,0.174 1.122,0.401 1.113,0.791 -1.196,1.093 -6.169,-0.832 -7.661,0.661 z m 86.31,64.617 c -0.461,0.1 -1.004,0.16 -1.432,0.14 -5.977,-3.418 -22.833,-6.367 -25.591,-6.849 -2.91,-0.508 -0.582,-1.455 0,-1.528 0.584,-0.074 -3.71,-7.058 -6.476,-10.259 -2.764,-3.2 -16.076,-15.821 -17.022,-16.366 0,0 1.055,-2 1.055,-3.348 0,0 -1.166,1.966 -2.182,1.82 0.584,-0.834 0.653,-5.42 -0.361,-8.074 0.144,0.8 0.072,3.42 -0.802,4.218 -0.947,-2.728 -1.418,-8.039 -6.547,-11.058 -1.054,2.618 -3.455,4.729 -4.8,6.659 -0.692,-6.148 3.746,-13.097 4.8,-13.751 1.056,-0.651 3.164,-3.346 3.201,-4.727 0.035,-1.384 0.763,-1.82 1.636,-2.002 0.873,-0.183 9.021,-3.455 11.385,-4.692 0,0 -3.6,0.693 -3.019,-0.8 0.582,-1.492 1.964,-1.892 3.348,-3.927 -0.475,0.073 -1.747,0.469 -3.273,0.727 -1.531,0.253 1.414,-3.056 1.889,-3.638 0.471,-0.584 0.4,-0.873 0.036,-0.691 -0.365,0.181 -0.728,0.073 -2.144,0.545 -1.421,0.475 0.762,-0.8 0.579,-2.581 -0.181,-1.783 -3.855,-3.892 -4.763,-3.711 -0.912,0.183 -1.274,-1.201 -3.165,-1.926 -1.892,-0.728 -2.474,-0.075 -2.985,0.287 -0.506,0.366 -0.323,-0.216 -0.614,-0.651 -0.292,-0.436 -1.165,0.108 -2.404,-0.402 -1.232,-0.508 -1.232,1.855 -1.272,2.657 -0.036,0.801 -0.401,0.981 -0.62,0.253 -0.215,-0.73 -0.509,-0.436 -0.398,1.052 0.098,1.337 0.396,2.959 -0.427,3.963 -0.042,0.012 -0.077,0.024 -0.119,0.041 -1.309,0.546 -1.709,-2.982 -1.709,-3.748 0,-0.76 -2.036,-8.073 -0.438,-8.947 1.601,-0.875 2.401,0.581 2.401,0.581 1.164,-2.256 2.983,-2.69 4.876,-2.47 1.889,0.214 1.963,2.982 1.963,2.982 2.11,-2.4 3.928,-2.256 5.819,-1.383 1.891,0.871 1.454,2.91 1.454,2.91 3.058,-1.018 6.548,1.601 6.331,5.601 2.689,0 4.874,3.2 4.585,5.529 2.255,0.656 3.198,3.273 0.87,4.364 3.494,0.145 4.217,3.783 1.673,5.02 -2.543,1.236 -20.004,4.656 -20.004,4.656 -0.728,2.983 -3.564,7.782 -3.564,7.782 1.526,1.164 8.691,9.968 11.639,16.951 7.312,8.077 19.531,22.805 22.041,29.515 9.603,2.075 23.571,7.913 24.223,8.239 0.658,0.329 1.094,0.873 0.327,1.037" style="fill:#f6f5b3;fill-opacity:1;fill-rule:nonzero;stroke:none;stroke-width:0.1" id="path308"></path></g></g></g></svg>
