
<svg xmlns="http://www.w3.org/2000/svg" version="1.1" id="svg10" xml:space="preserve" width="538.46997" height="484.48999" viewBox="0 0 538.46997 484.49"><defs id="defs14"><clipPath clipPathUnits="userSpaceOnUse" id="clipPath26"><path d="M 0,595.275 H 841.89 V 0 H 0 Z" id="path24"></path></clipPath></defs><g id="g18" transform="matrix(1.3333333,0,0,-1.3333333,0,793.7)"><g id="g20" transform="translate(-206.03696,81.43438)"><g id="g22" clip-path="url(#clipPath26)"><g id="g28" transform="translate(593.2773,313.0898)"><path d="m 0,0 c 0,-89.727 -73.494,-162.486 -163.881,-162.486 -90.53,0 -163.94,72.759 -163.94,162.486 0,89.585 73.41,162.187 163.94,162.187 C -73.494,162.187 0,89.585 0,0" style="fill:#060709;fill-opacity:1;fill-rule:nonzero;stroke:none" id="path30"></path></g><g id="g32" transform="translate(429.3281,469.7197)"><path d="m 0,0 c -87.828,0 -159.044,-70.413 -159.044,-157.359 h 39.74 c 0,65.134 53.429,117.981 119.304,117.981 65.875,0 119.156,-52.847 119.156,-117.981 h 39.815 C 158.971,-70.413 87.828,0 0,0" style="fill:#f15026;fill-opacity:1;fill-rule:nonzero;stroke:none" id="path34"></path></g><g id="g36" transform="translate(548.4844,312.3604)"><path d="M 0,0 C 0,65.135 -53.281,117.981 -119.156,117.981 -185.032,117.981 -238.46,65.135 -238.46,0 Z" style="fill:#0bb1d9;fill-opacity:1;fill-rule:nonzero;stroke:none" id="path38"></path></g><g id="g40" transform="translate(429.3281,194.2207)"><path d="m 0,0 c -65.875,0 -119.304,52.847 -119.304,118.14 h -39.74 c 0,-87.099 71.216,-157.512 159.044,-157.512 87.828,0 158.971,70.413 158.971,157.512 H 119.156 C 119.156,52.847 65.875,0 0,0" style="fill:#060709;fill-opacity:1;fill-rule:nonzero;stroke:none" id="path42"></path></g><g id="g44" transform="translate(429.3281,194.2207)"><path d="m 0,0 c 65.875,0 119.156,52.847 119.156,118.14 h -238.46 C -119.304,52.847 -65.875,0 0,0" style="fill:#ffffff;fill-opacity:1;fill-rule:nonzero;stroke:none" id="path46"></path></g><g id="g48" transform="translate(429.3281,194.2207)"><path d="m 0,0 c 65.875,0 119.156,52.847 119.156,118.14 h -238.46 C -119.304,52.847 -65.875,0 0,0 Z" style="fill:none;stroke:#110f0d;stroke-width:0.942;stroke-linecap:butt;stroke-linejoin:miter;stroke-miterlimit:4;stroke-dasharray:none;stroke-opacity:1" id="path50"></path></g><g id="g52" transform="translate(337.2495,406.0381)"><path d="m 0,0 -4.171,-4.759 -3.436,3.001 3.877,4.765 C -2.486,4.104 -0.803,2.792 -0.803,2.792 0.735,1.685 0,0 0,0 m -12.66,2.487 3.295,4.25 c 1.243,0.735 2.639,-0.44 2.639,-0.44 1.458,-1.323 0.362,-2.781 0.362,-2.781 l -3.368,-3.658 z m 9.665,2.939 c 0,0 1.604,3.363 -0.661,5.415 0,0 -2.052,1.752 -4.754,-0.153 l -8.422,-8.924 c 0,0 -1.028,-1.318 -0.147,-2.634 l 9.518,-8.568 c 0,0 1.465,-1.097 3.075,0.655 l 7.975,9.229 c 0,0 1.758,3.793 -0.367,5.851 0,0 -2.487,2.204 -6.217,-0.871 m 108.904,44.64 -1.83,-11.276 -4.975,11.129 c 0,0 -0.588,1.611 -2.713,1.758 l -3.363,0.141 -2.854,-15.95 5.274,-0.582 1.824,11.999 5.133,-11.999 c 0,0 0.289,-1.758 3.357,-1.758 h 2.645 l 2.703,15.588 z m -39.96,-13.17 1.831,6.868 4.759,-4.974 z m 2.34,12 c 0,0 -1.899,-0.147 -2.708,-2.125 l -4.392,-16.035 3.589,0.447 0.73,3.583 8.489,1.972 2.346,-2.701 5.488,1.097 -10.835,12.887 c 0,0 -0.582,0.875 -2.707,0.875 M 46.777,37.038 c 0,0 -3.448,-0.142 -6.008,-0.955 0,0 -4.171,-1.685 -4.392,0.588 0,0 -0.44,2.56 5.2,3.589 0,0 2.634,0.294 3.222,-1.764 l 4.244,1.764 c 0,0 -1.396,3.504 -8.274,2.193 0,0 -8.484,-2.193 -8.71,-7.025 0,0 -0.294,-4.827 6.003,-4.827 0,0 3.809,0.728 5.052,1.164 0,0 3.951,1.028 4.907,-0.95 0,0 0.508,-2.921 -4.907,-3.657 0,0 -3.148,-0.514 -4.759,2.419 l -4.386,-1.758 c 0,0 2.047,-3.814 6.579,-3.662 0,0 11.056,0.294 11.643,7.902 0,0 0.215,5.127 -5.414,4.979 M 18.448,30.895 14.277,27.74 21.444,18.596 c 1.103,-3.222 -0.949,-4.387 -0.949,-4.387 -4.172,-2.498 -5.488,0.136 -5.488,0.136 L 8.195,23.128 3.81,19.906 11.35,10.399 c 2.119,-1.61 5.782,-0.586 5.782,-0.586 4.685,0.728 7.466,5.267 7.466,5.267 2.634,4.398 1.017,6.884 1.017,6.884 z" style="fill:#ffffff;fill-opacity:1;fill-rule:nonzero;stroke:none" id="path54"></path></g><g id="g56" transform="translate(337.2495,406.0381)"><path d="m 0,0 -4.171,-4.759 -3.436,3.001 3.877,4.765 C -2.486,4.104 -0.803,2.792 -0.803,2.792 0.735,1.685 0,0 0,0 Z m -12.66,2.487 3.295,4.25 c 1.243,0.735 2.639,-0.44 2.639,-0.44 1.458,-1.323 0.362,-2.781 0.362,-2.781 l -3.368,-3.658 z m 9.665,2.939 c 0,0 1.604,3.363 -0.661,5.415 0,0 -2.052,1.752 -4.754,-0.153 l -8.422,-8.924 c 0,0 -1.028,-1.318 -0.147,-2.634 l 9.518,-8.568 c 0,0 1.465,-1.097 3.075,0.655 l 7.975,9.229 c 0,0 1.758,3.793 -0.367,5.851 0,0 -2.487,2.204 -6.217,-0.871 z m 108.904,44.64 -1.83,-11.276 -4.975,11.129 c 0,0 -0.588,1.611 -2.713,1.758 l -3.363,0.141 -2.854,-15.95 5.274,-0.582 1.824,11.999 5.133,-11.999 c 0,0 0.289,-1.758 3.357,-1.758 h 2.645 l 2.703,15.588 z m -39.96,-13.17 1.831,6.868 4.759,-4.974 z m 2.34,12 c 0,0 -1.899,-0.147 -2.708,-2.125 l -4.392,-16.035 3.589,0.447 0.73,3.583 8.489,1.972 2.346,-2.701 5.488,1.097 -10.835,12.887 c 0,0 -0.582,0.875 -2.707,0.875 z M 46.777,37.038 c 0,0 -3.448,-0.142 -6.008,-0.955 0,0 -4.171,-1.685 -4.392,0.588 0,0 -0.44,2.56 5.2,3.589 0,0 2.634,0.294 3.222,-1.764 l 4.244,1.764 c 0,0 -1.396,3.504 -8.274,2.193 0,0 -8.484,-2.193 -8.71,-7.025 0,0 -0.294,-4.827 6.003,-4.827 0,0 3.809,0.728 5.052,1.164 0,0 3.951,1.028 4.907,-0.95 0,0 0.508,-2.921 -4.907,-3.657 0,0 -3.148,-0.514 -4.759,2.419 l -4.386,-1.758 c 0,0 2.047,-3.814 6.579,-3.662 0,0 11.056,0.294 11.643,7.902 0,0 0.215,5.127 -5.414,4.979 z M 18.448,30.895 14.277,27.74 21.444,18.596 c 1.103,-3.222 -0.949,-4.387 -0.949,-4.387 -4.172,-2.498 -5.488,0.136 -5.488,0.136 L 8.195,23.128 3.81,19.906 11.35,10.399 c 2.119,-1.61 5.782,-0.586 5.782,-0.586 4.685,0.728 7.466,5.267 7.466,5.267 2.634,4.398 1.017,6.884 1.017,6.884 z" style="fill:none;stroke:#ffffff;stroke-width:0.459;stroke-linecap:butt;stroke-linejoin:miter;stroke-miterlimit:4;stroke-dasharray:none;stroke-opacity:1" id="path58"></path></g><g id="g60" transform="translate(481.5879,220.4238)"><path d="m 0,0 c 0,0 5.119,-0.43 6.584,-0.43 1.611,0 6.443,0.288 9.371,-0.729 0,0 0.441,-0.299 0.582,0.583 0.289,1.028 2.922,6.002 2.922,6.002 0,0 1.471,3.945 1.322,5.121 -0.14,0.876 0.442,0.588 0.442,0.588 0,0 0.881,-3.222 -0.442,-6.885 -1.322,-3.656 -1.322,-4.68 -1.322,-4.68 l 3.074,-1.028 -8.195,-3.804 -0.147,1.464 c 0,0 -4.386,1.904 -7.466,1.458 0,0 -4.821,0.882 -6.725,2.34" style="fill:#f15026;fill-opacity:1;fill-rule:nonzero;stroke:none" id="path62"></path></g><g id="g64" transform="translate(477.3418,231.8467)"><path d="m 0,0 c 0,0 4.975,-1.317 6.443,-1.611 1.606,-0.288 6.444,-0.735 9.078,-2.34 0,0 0.288,-0.288 0.723,0.582 0.442,0.882 3.957,5.421 3.957,5.421 0,0 2.051,3.803 2.051,4.679 0,1.029 0.582,0.588 0.582,0.588 0,0 0.295,-3.368 -1.762,-6.737 -1.754,-3.216 -2.047,-4.239 -2.047,-4.239 l 2.928,-1.605 -8.777,-2.345 0.14,1.463 c 0,0 -3.951,2.634 -7.031,2.775 0,0 -4.68,1.47 -6.285,3.369" style="fill:#f15026;fill-opacity:1;fill-rule:nonzero;stroke:none" id="path66"></path></g><g id="g68" transform="translate(473.3867,242.3877)"><path d="m 0,0 c 0,0 4.832,-1.752 6.295,-2.198 1.471,-0.436 6.291,-1.318 8.783,-3.081 0,0 0.295,-0.288 0.871,0.593 0.305,0.735 4.25,4.833 4.25,4.833 0,0 2.489,3.651 2.647,4.68 0.134,0.882 0.427,0.441 0.427,0.441 0,0 0.295,-3.516 -2.044,-6.584 -2.346,-3.07 -2.487,-4.099 -2.487,-4.099 l 2.633,-1.904 -8.93,-1.464 0.293,1.464 c 0,0 -3.662,2.933 -6.736,3.368 0,0 -4.68,1.905 -6.002,3.951" style="fill:#f15026;fill-opacity:1;fill-rule:nonzero;stroke:none" id="path70"></path></g><g id="g72" transform="translate(471.1934,251.4648)"><path d="m 0,0 c 0,0 4.973,-1.752 6.438,-2.198 1.468,-0.448 6.154,-1.318 8.789,-3.081 0,0 0.287,-0.288 0.734,0.447 0.43,0.876 4.238,4.979 4.238,4.979 0,0 2.635,3.51 2.635,4.533 0.146,1.029 0.588,0.588 0.588,0.588 0,0 0.146,-3.363 -2.199,-6.59 -2.188,-3.075 -2.487,-4.092 -2.487,-4.092 l 2.639,-1.911 -8.783,-1.458 0.289,1.458 c 0,0 -3.817,3.075 -6.879,3.369 0,0 -4.545,1.898 -6.002,3.956" style="fill:#f15026;fill-opacity:1;fill-rule:nonzero;stroke:none" id="path74"></path></g><g id="g76" transform="translate(468.5527,265.3691)"><path d="m 0,0 c 0,0 4.393,-2.634 5.861,-3.222 1.319,-0.723 5.844,-2.487 8.049,-4.679 0,0 0.295,-0.442 0.729,0.294 0.593,0.723 5.273,4.091 5.273,4.091 0,0 3.217,3.076 3.369,4.098 0.295,1.023 0.735,0.446 0.735,0.446 0,0 -0.588,-3.368 -3.522,-6.155 -2.627,-2.634 -3.074,-3.51 -3.074,-3.51 l 2.199,-2.34 h -8.93 l 0.44,1.464 c 0,0 -2.928,3.658 -6.002,4.539 0,0 -4.104,2.781 -5.127,4.974" style="fill:#f15026;fill-opacity:1;fill-rule:nonzero;stroke:none" id="path78"></path></g><g id="g80" transform="translate(350.939,236.5322)"><path d="m 0,0 c 0,0 2.125,-4.539 2.86,-6.003 0.803,-1.316 3.51,-5.268 4.025,-8.195 0,0 0,-0.588 0.949,-0.3 0.876,0.3 6.59,0.447 6.59,0.447 0,0 4.239,0.882 5.121,1.469 0.734,0.724 0.734,0.136 0.734,0.136 0,0 -2.344,-2.476 -6.228,-3.21 -3.877,-0.594 -4.68,-1.187 -4.68,-1.187 l 0.582,-3.063 -7.466,4.984 1.243,0.871 c 0,0 -0.44,4.68 -2.413,7.167 0,0 -1.826,4.544 -1.317,6.884" style="fill:#f15026;fill-opacity:1;fill-rule:nonzero;stroke:none" id="path82"></path></g><g id="g84" transform="translate(356.0659,244.7275)"><path d="m 0,0 c 0,0 2.046,-4.827 2.854,-6.149 0.802,-1.312 3.515,-5.262 4.097,-8.196 0,0 0,-0.588 0.877,-0.294 0.881,0.294 6.59,0.441 6.59,0.441 0,0 4.318,0.871 5.121,1.605 0.729,0.594 0.729,0 0.729,0 0,0 -2.34,-2.634 -6.144,-3.21 -3.877,-0.588 -4.686,-1.181 -4.686,-1.181 l 0.442,-3.216 -7.32,5.121 1.17,0.881 c 0,0 -0.441,4.685 -2.345,7.173 0,0 -1.826,4.539 -1.385,7.025" style="fill:#f15026;fill-opacity:1;fill-rule:nonzero;stroke:none" id="path86"></path></g><g id="g88" transform="translate(359.5073,253.3701)"><path d="m 0,0 c 0,0 2.487,-4.392 3.357,-5.715 0.882,-1.311 3.957,-4.973 4.765,-7.901 0,0 0,-0.588 0.876,-0.3 0.803,0.446 6.512,1.182 6.512,1.182 0,0 4.25,1.164 4.979,1.899 0.73,0.734 0.808,0.147 0.808,0.147 0,0 -2.125,-2.782 -5.935,-3.81 -3.803,-0.87 -4.611,-1.606 -4.611,-1.606 l 0.808,-3.074 -7.76,4.386 1.176,1.028 c 0,0 -0.882,4.687 -3.076,6.873 0,0 -2.125,4.398 -1.899,6.891" style="fill:#f15026;fill-opacity:1;fill-rule:nonzero;stroke:none" id="path90"></path></g><g id="g92" transform="translate(362.5034,263.3174)"><path d="m 0,0 c 0,0 3.074,-4.098 4.104,-5.262 1.022,-1.181 4.459,-4.397 5.628,-7.319 0,0 0.08,-0.447 0.882,0 0.876,0.429 6.438,1.752 6.438,1.752 0,0 4.03,1.616 4.612,2.346 0.661,0.876 0.809,0.288 0.809,0.288 0,0 -1.764,-2.934 -5.421,-4.386 -3.656,-1.329 -4.392,-2.052 -4.392,-2.052 l 1.17,-3.075 -8.268,3.516 1.028,1.164 c 0,0 -1.39,4.397 -3.81,6.443 0,0 -2.707,4.098 -2.78,6.585" style="fill:#f15026;fill-opacity:1;fill-rule:nonzero;stroke:none" id="path94"></path></g><g id="g96" transform="translate(364.6968,272.1064)"><path d="m 0,0 c 0,0 3.368,-3.951 4.465,-4.974 1.176,-1.029 4.832,-4.251 6.228,-6.89 0,0 0.142,-0.435 0.944,0 0.735,0.588 6.15,2.341 6.15,2.341 0,0 3.95,2.051 4.538,2.786 0.588,0.87 0.735,0.294 0.735,0.294 0,0 -1.617,-3.08 -5.053,-4.686 -3.516,-1.758 -4.171,-2.634 -4.171,-2.634 l 1.391,-2.787 -8.564,2.787 0.955,1.17 c 0,0 -1.758,4.386 -4.323,6.15 0,0 -3.002,3.945 -3.295,6.443" style="fill:#f15026;fill-opacity:1;fill-rule:nonzero;stroke:none" id="path98"></path></g><g id="g100" transform="translate(384.0269,229.6484)"><path d="m 0,0 1.385,0.146 c 0,-0.582 0.073,-1.028 0.299,-1.317 0.141,-0.434 0.429,-0.734 0.871,-1.022 0.44,-0.148 1.028,-0.294 1.616,-0.294 0.509,0 1.022,0.146 1.458,0.294 0.441,0.152 0.809,0.44 1.029,0.734 0.293,0.288 0.441,0.577 0.508,0.871 0,0.299 0,0.588 -0.146,0.887 C 6.799,0.587 6.578,0.734 6.138,0.881 5.855,1.028 5.268,1.322 4.313,1.464 3.362,1.752 2.701,1.91 2.34,2.198 1.898,2.486 1.531,2.78 1.311,3.222 1.164,3.515 1.164,3.956 1.164,4.544 1.311,4.984 1.531,5.566 1.898,6.014 2.34,6.443 2.849,6.884 3.436,7.036 4.092,7.324 4.753,7.46 5.482,7.46 6.29,7.46 6.951,7.324 7.534,7.036 8.116,6.884 8.557,6.443 8.704,5.855 8.998,5.42 9.065,4.832 8.998,4.25 L 7.607,4.098 C 7.681,4.832 7.534,5.278 7.166,5.708 6.726,6.014 6.217,6.149 5.335,6.149 4.459,6.149 3.871,6.014 3.362,5.708 2.928,5.42 2.701,4.984 2.628,4.544 2.486,4.25 2.628,3.956 2.849,3.668 3.068,3.368 3.729,3.08 4.826,2.933 5.996,2.486 6.726,2.345 7.166,2.198 7.681,1.91 8.116,1.464 8.342,1.028 8.557,0.587 8.636,0.146 8.557,-0.436 8.483,-1.018 8.195,-1.605 7.822,-2.193 7.387,-2.635 6.799,-2.929 6.217,-3.223 5.482,-3.511 4.826,-3.657 4.023,-3.657 3.068,-3.657 2.266,-3.511 1.684,-3.223 1.017,-2.929 0.582,-2.487 0.361,-1.905 0,-1.312 0,-0.724 0,0" style="fill:#060709;fill-opacity:1;fill-rule:nonzero;stroke:none" id="path102"></path></g><g id="g104" transform="translate(394.2681,226.1377)"><path d="m 0,0 1.752,10.683 h 1.47 L 1.464,0 Z" style="fill:#060709;fill-opacity:1;fill-rule:nonzero;stroke:none" id="path106"></path></g><g id="g108" transform="translate(398.2183,226.1377)"><path d="m 0,0 1.758,10.683 h 1.39 L 7.467,2.34 8.857,10.683 H 10.18 L 8.422,0 H 6.958 L 2.708,8.495 1.317,0 Z" style="fill:#060709;fill-opacity:1;fill-rule:nonzero;stroke:none" id="path110"></path></g><g id="g112" transform="translate(417.3169,229.7949)"><path d="M 0,0 1.396,-0.294 C 0.894,-1.458 0.227,-2.34 -0.655,-2.922 c -0.949,-0.735 -1.9,-0.882 -3.001,-0.882 -1.159,0 -2.052,0.147 -2.708,0.594 -0.656,0.576 -1.097,1.158 -1.311,2.046 -0.226,0.87 -0.294,1.898 -0.08,2.928 0.148,1.17 0.521,2.046 1.103,2.922 0.582,0.876 1.243,1.469 2.125,1.904 0.871,0.435 1.82,0.723 2.708,0.723 1.095,0 1.977,-0.288 2.554,-0.87 C 1.47,5.867 1.764,5.132 1.911,4.104 L 0.446,3.81 C 0.373,4.539 0.079,5.132 -0.361,5.562 -0.724,5.867 -1.312,6.003 -2.04,6.003 -2.849,6.003 -3.583,5.867 -4.239,5.562 -4.815,5.132 -5.262,4.539 -5.629,3.81 -5.997,3.222 -6.217,2.498 -6.285,1.764 -6.432,0.882 -6.432,0 -6.285,-0.582 c 0.141,-0.735 0.441,-1.17 0.944,-1.606 0.526,-0.299 1.102,-0.446 1.758,-0.446 0.809,0 1.543,0.147 2.131,0.735 C -0.791,-1.458 -0.361,-0.87 0,0" style="fill:#060709;fill-opacity:1;fill-rule:nonzero;stroke:none" id="path114"></path></g><g id="g116" transform="translate(419.9624,226.1377)"><path d="M 0,0 1.752,10.683 H 9.506 L 9.366,9.366 H 2.995 L 2.409,6.155 H 8.342 L 8.196,4.833 H 2.194 L 1.605,1.17 H 8.196 L 8.038,0 Z" style="fill:#060709;fill-opacity:1;fill-rule:nonzero;stroke:none" id="path118"></path></g><g id="g120" transform="translate(442.1289,236.9727)"><path d="m 0,0 -1.818,-10.981 h -3.008 l 1.17,7.325 C -4.158,-4.103 -4.68,-4.392 -5.188,-4.68 -5.707,-4.838 -6.363,-5.126 -7.02,-5.268 l 0.362,2.488 c 1.109,0.288 1.978,0.734 2.566,1.164 0.656,0.441 1.17,0.882 1.617,1.616 z" style="fill:#060709;fill-opacity:1;fill-rule:nonzero;stroke:none" id="path122"></path></g><g id="g124" transform="translate(450.4043,233.3164)"><path d="M 0,0 C 0.146,0.582 0,0.876 -0.221,1.316 -0.436,1.61 -0.723,1.752 -1.244,1.752 -1.617,1.752 -1.973,1.61 -2.271,1.316 -2.566,1.018 -2.781,0.582 -2.928,0 c -0.068,-0.588 0,-1.023 0.221,-1.323 0.221,-0.435 0.514,-0.435 0.955,-0.435 0.367,0 0.797,0 1.096,0.288 C -0.287,-1.182 -0.068,-0.588 0,0 m -6.297,-4.839 3.076,0.447 c 0,-0.447 0.078,-0.735 0.225,-1.029 0.142,-0.152 0.357,-0.152 0.588,-0.152 0.504,0 0.949,0.152 1.312,0.734 0.215,0.289 0.508,1.024 0.809,2.199 -0.436,-0.441 -0.883,-0.588 -1.33,-0.881 -0.356,-0.147 -0.791,-0.147 -1.311,-0.147 -0.949,0 -1.683,0.299 -2.265,1.028 -0.516,0.724 -0.662,1.458 -0.516,2.64 0.068,0.582 0.367,1.316 0.803,1.898 0.447,0.583 1.029,1.024 1.605,1.318 0.662,0.288 1.397,0.44 2.346,0.44 1.101,0 1.916,-0.152 2.492,-0.588 C 2.125,2.775 2.566,2.188 2.781,1.316 3.068,0.582 3.068,-0.446 2.859,-1.758 2.486,-3.815 1.91,-5.127 0.961,-6.155 c -1.029,-0.87 -2.205,-1.312 -3.668,-1.312 -0.883,0 -1.543,0.142 -1.973,0.288 -0.441,0.154 -0.881,0.448 -1.095,0.876 -0.295,0.442 -0.442,0.882 -0.522,1.464" style="fill:#060709;fill-opacity:1;fill-rule:nonzero;stroke:none" id="path126"></path></g><g id="g128" transform="translate(458.0234,233.8984)"><path d="M 0,0 C 0,-0.294 0,-0.582 0.215,-0.882 0.43,-1.028 0.723,-1.17 1.092,-1.17 c 0.367,0 0.66,0.142 0.955,0.288 0.215,0.3 0.361,0.588 0.43,0.882 0,0.294 0,0.734 -0.215,0.87 C 2.113,1.17 1.82,1.316 1.459,1.316 1.092,1.316 0.803,1.17 0.504,0.87 0.215,0.734 0.068,0.294 0,0 m -0.881,-4.686 c -0.148,-0.446 0,-0.735 0.219,-1.023 0.215,-0.294 0.504,-0.446 0.951,-0.446 0.367,0 0.66,0.152 1.022,0.446 0.373,0.288 0.587,0.735 0.587,1.023 0.149,0.582 0,1.023 -0.214,1.317 -0.225,0.294 -0.52,0.441 -0.961,0.441 -0.362,0 -0.723,-0.147 -1.016,-0.441 -0.369,-0.294 -0.521,-0.735 -0.588,-1.317 m -0.736,2.634 c -0.514,0.288 -0.729,0.447 -0.949,0.735 -0.227,0.435 -0.227,1.023 -0.227,1.611 0.158,0.734 0.736,1.47 1.611,2.046 0.809,0.582 1.686,0.734 2.787,0.734 1.458,0 2.418,-0.288 3.075,-0.881 C 5.262,1.605 5.482,1.028 5.336,0.146 5.262,-0.294 5.053,-0.735 4.68,-1.17 4.459,-1.47 4.092,-1.764 3.584,-2.052 4.16,-2.34 4.527,-2.786 4.68,-3.222 4.895,-3.663 4.975,-4.104 4.895,-4.686 4.816,-5.268 4.602,-5.709 4.238,-6.291 3.945,-6.737 3.584,-7.025 3.211,-7.313 2.775,-7.607 2.34,-7.761 1.752,-7.907 1.164,-7.907 0.576,-8.049 0,-8.049 c -1.182,0 -1.979,0.142 -2.498,0.442 -0.582,0.294 -1.029,0.582 -1.164,1.164 -0.295,0.44 -0.295,1.175 -0.227,1.757 0.075,0.582 0.362,1.17 0.735,1.611 0.361,0.289 0.808,0.735 1.537,1.023" style="fill:#060709;fill-opacity:1;fill-rule:nonzero;stroke:none" id="path130"></path></g><g id="g132" transform="translate(472.3633,225.9912)"><path d="m 0,0 h -9.004 c 0.293,0.882 0.734,1.752 1.397,2.486 0.66,0.736 1.757,1.758 3.435,2.787 0.949,0.582 1.543,1.165 1.832,1.464 0.367,0.288 0.582,0.729 0.582,1.018 0,0.299 0,0.588 -0.215,0.887 -0.226,0.135 -0.515,0.294 -0.882,0.294 -0.368,0 -0.723,-0.159 -0.956,-0.294 C -4.098,8.343 -4.313,7.907 -4.539,7.325 l -2.928,0.288 c 0.221,0.73 0.52,1.464 0.955,1.9 0.356,0.446 0.877,0.734 1.537,1.028 0.582,0.288 1.397,0.44 2.414,0.44 1.09,0 1.827,-0.152 2.272,-0.44 C 0.287,10.394 0.734,9.959 1.023,9.513 1.17,8.936 1.316,8.489 1.17,7.755 1.17,7.172 0.875,6.59 0.287,5.855 -0.143,5.273 -0.877,4.686 -2.131,3.956 -2.787,3.51 -3.223,3.222 -3.443,3.069 -3.658,2.934 -3.951,2.64 -4.24,2.486 h 4.527 z" style="fill:#060709;fill-opacity:1;fill-rule:nonzero;stroke:none" id="path134"></path></g><g id="g136" transform="translate(535.8867,302.04)"><path d="M 0,0 C -0.289,-1.097 -2.477,-4.466 -19.318,-7.1 -12,-4.759 -6.432,-1.097 -3.211,3.877 -1.164,2.271 0,0.655 0,0 m -2.635,25.762 c -0.429,0.509 -0.869,1.023 -1.164,1.39 1.752,1.752 9.072,9.801 8.485,14.493 -0.877,4.832 -4.387,6.731 -9.073,8.489 -3.955,1.464 -15.955,5.709 -27.66,-4.245 -1.9,1.17 -4.398,1.464 -6.738,1.317 5.127,10.389 -2.486,17.273 -10.682,16.103 -7.607,-1.17 -15.814,-6.302 -19.318,-19.178 -1.25,0 -2.42,-0.147 -3.528,-0.361 -0.068,3.436 -6.58,15.08 -25.904,4.894 -4.17,6.003 -14.564,4.104 -27.587,-5.409 -0.667,7.025 -18.448,11.412 -29.94,7.467 -7.319,-2.493 -17.86,-7.032 -24.739,-19.766 0.441,1.17 1.905,6.879 0,8.195 2.193,2.052 3.369,4.98 3.369,8.789 0,5.41 -4.833,13.023 -13.983,13.023 -8.563,0 -14.786,-5.483 -14.786,-13.023 0,-2.644 0.882,-5.278 2.493,-7.325 -3.296,-1.752 -16.617,-7.166 -16.465,-14.78 0.142,-7.46 5.482,-8.93 5.482,-8.93 -1.831,-4.539 -5.052,-10.473 -4.827,-14.634 0.294,-3.956 2.996,-13.027 14.567,-11.642 11.563,1.385 12.439,3.368 18.374,6.07 4.974,-9.801 19.025,-5.109 23.343,-2.34 4.759,-7.167 19.398,-3.002 28.984,5.126 2.928,-9.365 16.098,-7.607 21.366,1.17 2.57,-15.368 24.377,-8.929 30.814,-1.904 5.053,-14.928 24.678,-5.121 33.02,1.758 1.605,-3.946 9.505,-8.049 14.627,-8.631 -17.997,-1.758 -66.965,-2.787 -73.047,-2.634 -29.12,0.288 -82.114,2.04 -138.036,-7.325 -19.827,-3.222 -65.281,-13.034 -73.77,-15.956 -18.811,-6.15 -9.666,-19.612 0.655,-21.224 7.325,-1.17 21.817,-8.777 27.447,-15.956 7.539,-9.665 16.984,-7.46 25.18,-0.876 8.71,7.161 51.377,30.883 106.276,31.906 16.244,0.294 82.113,2.488 110.957,4.386 28.836,1.764 73.912,6.891 75.381,31.483 0.876,16.39 -11.995,26.717 -29.573,30.08" style="fill:#211d1d;fill-opacity:1;fill-rule:nonzero;stroke:none" id="path138"></path></g><g id="g140" transform="translate(285.6519,317.1143)"><path d="m 0,0 c -0.661,-4.313 -21.444,-12.226 -24.739,-9.004 -1.979,2.046 -0.656,8.783 -0.068,11.417 C -21.958,-4.979 -9.004,-1.679 0,0 m 49.772,56.65 c -3.215,3.149 -12.734,10.468 -30.448,7.981 -38.06,-5.12 -71.51,-37.253 -78.095,-64.411 -6.877,-28.102 15.222,-35.127 25.91,-34.399 h -0.074 c -9.224,-2.34 -26.497,-12.146 -22.393,-22.981 3.583,-9.518 27.152,-11.135 55.107,7.608 13.69,9.224 23.349,23.275 28.035,38.502 5.415,17.855 8.93,20.488 13.028,21.738 8.054,2.418 8.054,16.47 -2.119,16.029 -10.028,-0.588 -37.914,-3.074 -41.284,-3.228 -3.074,-0.428 -8.85,-3.216 -17.205,-8.483 5.568,7.901 13.837,19.172 32.5,24.587 5.495,1.616 8.49,-1.979 9.151,-3.211 2.125,-3.956 7.834,-6.59 13.537,-5.426 8.274,1.611 18.375,9.813 18.957,16.844 0.294,2.774 -1.458,5.844 -4.607,8.85" style="fill:#211d1d;fill-opacity:1;fill-rule:nonzero;stroke:none" id="path142"></path></g><g id="g144" transform="translate(516.8613,335.1953)"><path d="M 0,0 C 0.582,1.458 4.393,-0.294 5.273,-3.075 4.393,-2.047 -0.869,-1.391 0,0 m -10.682,-16.25 c 1.899,-2.493 5.996,-1.023 7.313,-5.268 0.736,-1.905 -7.76,-0.587 -7.313,5.268 m -15.375,2.052 c -1.468,1.458 -6.877,0.434 -8.341,-0.882 1.752,4.392 3.957,10.026 3.957,10.026 l 6.148,0.509 5.557,3.957 c -0.582,-3.222 -0.289,-7.031 0.582,-8.196 -1.459,0.068 -7.903,-5.414 -7.903,-5.414 m -29.785,3.945 c -1.471,-0.803 -8.275,-4.392 -8.275,-4.392 l 2.859,7.325 c 0.442,-0.435 4.682,-0.141 7.61,-0.141 -0.215,-1.182 -0.797,-2.058 -2.194,-2.792 m -61.919,-4.527 4.754,12.434 c -0.582,-2.414 2.419,-5.709 6.37,-5.561 -0.368,-1.024 0.661,-0.809 -11.124,-6.873 m -23.055,-0.661 -3.516,-1.979 c 3.804,12.875 7.908,16.097 9.292,16.097 z m 155.162,5.346 c -1.164,2.34 -2.928,3.504 -4.387,4.68 3.223,-0.152 6.432,6.296 9.365,10.683 2.934,4.239 -2.051,7.031 -5.709,8.421 -5.408,1.978 -16.248,5.629 -27.09,-5.494 -0.576,2.922 -4.38,3.516 -11.406,2.046 7.315,13.611 0.588,17.42 -5.56,16.685 -6.163,-0.87 -13.77,-6.947 -16.979,-18.946 -4.685,0 -6.738,-0.079 -8.568,-2.418 1.095,13.756 -13.537,12.445 -24.373,5.855 -3.075,7.901 -12.078,4.974 -30.595,-7.834 2.922,6.218 0.294,7.11 -1.023,7.98 -5.199,3.658 -15.227,5.709 -25.694,2.126 -8.557,-2.996 -19.681,-10.467 -25.977,-29.357 -2.781,-1.164 -5.494,-2.34 -7.834,-3.368 6.952,16.622 9.734,22.031 5.782,25.841 3.07,1.469 4.465,3.888 4.465,7.98 0,4.093 -3.589,9.959 -10.835,9.959 -7.167,0 -11.711,-4.397 -11.711,-9.959 0,-3.368 1.905,-6.437 4.759,-8.195 -8.195,-3.662 -18.809,-10.106 -18.663,-13.763 0.073,-5.267 4.171,-6.516 6.664,-6.591 -1.984,-5.272 -5.194,-11.851 -5.273,-16.684 0,-4.686 3.148,-9.077 10.32,-8.642 7.1,0.588 13.837,4.104 20.416,7.178 3.81,-13.181 21.964,-3.222 22.692,-2.78 5.562,-8.491 16.832,-2.929 29.719,5.996 1.758,-11.711 12.367,-7.76 15.289,-3.736 0.735,0.961 3.075,3.448 11.276,23.575 0.734,0.514 1.752,1.102 2.707,1.684 -3.221,-7.907 -6.143,-16.55 -6.736,-21.235 -0.657,-4.601 2.939,-12.141 12.886,-9.8 6.59,1.537 9.077,3.729 17.047,8.777 1.549,-15.368 17.793,-9.365 31.844,1.611 6.002,-10.75 19.178,-11.705 25.033,-10.242 9.366,2.34 15.803,7.178 18.442,13.023 4.386,-2.188 8.054,-6.003 7.32,-8.777 -2.346,-10.983 -46.551,-12.735 -95.662,-13.323 -20.787,-0.294 -86.216,2.781 -152.018,-7.031 -19.76,-2.916 -64.847,-14.051 -72.969,-16.684 -12.593,-4.099 -9.659,-12.289 -1.028,-13.758 7.392,-1.176 24.01,-8.636 30.521,-16.837 7.54,-9.507 14.051,-6.585 19.545,-1.453 12.514,11.711 57.459,33.222 109.345,32.635 18.742,-0.294 82.633,3.809 131.819,6.884 18.006,1.029 50.642,8.783 50.642,25.977 0,13.983 -10.83,24.519 -27.808,27.311" style="fill:#f15026;fill-opacity:1;fill-rule:nonzero;stroke:none" id="path146"></path></g><g id="g148" transform="translate(527.5449,320.7031)"><path d="m 0,0 c -2.924,9.659 -15.951,8.189 -15.951,13.463 -0.153,5.561 8.789,8.783 14.638,0.441 2.047,3.222 5.999,8.342 5.999,8.342 -6.145,1.911 -12,5.709 -19.473,1.611 C -21.953,19.9 -26.498,13.102 -23.854,6.585 -21.512,0.067 -10.102,2.78 -8.92,-7.613 c 0.576,-6.303 -14.644,-10.983 -18.742,8.483 -3.809,-2.775 -9.365,-6.511 -9.365,-6.511 1.463,-11.485 14.056,-15.147 21.371,-13.395 6.443,1.752 16.101,5.855 16.244,14.785 6.301,-0.587 16.254,-7.607 15.666,-15.509 -1.176,-12.299 -23.715,-16.838 -100.641,-17.572 -75.681,-0.876 -72.527,3.363 -151.357,-7.025 -19.765,-2.782 -64.92,-14.346 -72.166,-16.539 -7.319,-2.199 -5.928,-3.363 -1.243,-4.543 4.607,-1.16 25.101,-7.897 33.155,-18.732 3.804,-4.974 5.195,-6.585 12.514,-0.582 15.221,12.44 60.754,34.246 112.572,33.658 31.104,-0.288 128.224,6.738 136.125,7.325 8.207,0.441 40.994,7.026 41.283,20.935 C 26.789,-9.298 14.496,-1.47 0,0 m -183.196,23.999 c 3.595,0 6.444,2.345 6.444,5.278 0,2.855 -2.849,5.195 -6.444,5.195 -3.584,0 -6.438,-2.34 -6.438,-5.195 0,-2.933 2.854,-5.278 6.438,-5.278 m 23.128,-26.927 c 1.979,8.49 6.884,25.174 21.155,20.415 l -8.709,-22.755 c -12.294,-5.2 -14.345,-6.149 -12.446,2.34 m -40.107,8.704 c 2.633,1.176 6.511,2.567 6.511,2.567 l -7.461,-19.913 c 0,0 -3.876,-9.072 3.952,-8.342 6.957,0.734 22.183,8.342 25.394,10.02 -2.996,-19.894 21.161,-2.995 21.161,-2.995 0,-12.367 13.096,-5.63 34.614,9.959 -2.125,-5.64 -3.295,-9.303 -3.001,-10.988 0.661,-2.843 3.724,-4.386 6.804,-1.022 2.419,2.786 8.496,17.572 10.982,23.863 13.463,8.201 17.715,10.099 14.119,3.153 -3.73,-7.251 -9.433,-23.648 -9.433,-25.688 0,-2.204 -0.072,-7.032 7.094,-5.426 5.562,1.176 19.918,10.987 25.914,15.226 -2.051,-5.709 -3.289,-9.8 -2.934,-11.485 1.465,-7.686 11.564,-3.741 27.527,8.27 3.516,2.774 -1.906,3.509 -4.252,2.187 -1.898,-1.165 -11.123,-5.845 -11.123,-5.845 2.635,6.726 6.151,16.103 9.366,24.587 4.257,0.441 7.625,0.735 8.937,0.735 1.457,1.164 7.754,5.997 7.754,5.997 0,0 -7.025,-0.582 -14.639,-1.464 2.051,4.985 3.809,9.371 4.985,12.378 3.945,9.134 -9.383,5.341 -13.475,-4.917 -1.17,-2.844 -2.191,-5.709 -3.357,-8.631 -4.256,-0.446 -7.471,-0.735 -8.207,-0.876 -1.389,-1.176 -5.555,-4.251 -7.026,-5.636 2.346,0 7.467,0.515 13.03,1.091 -1.606,-3.944 -3.149,-7.754 -4.534,-11.117 -20.494,-10.983 -22.693,-12.881 -20.941,-7.467 4.838,14.192 11.863,26.491 10.547,29.572 -0.875,2.193 -4.975,5.708 -25.547,-6.737 2.853,7.093 4.029,11.857 -7.025,5.856 -11.565,-6.218 -15.369,-8.196 -14.278,-10.243 1.102,-2.204 7.467,1.165 9.885,2.341 -1.972,-4.839 -3.803,-9.078 -5.267,-12.734 -22.761,-12.735 -23.79,-12.735 -22.468,-9.598 0.95,2.419 11.124,29.719 11.124,29.719 -8.71,6.076 -35.207,6.009 -44.945,-26.853 -1.753,-0.735 -14.052,-6.003 -16.098,-6.89 -2.192,-0.729 -3.368,0 -2.634,2.34 0.73,2.205 8.343,21.376 9.366,24.016 0.877,2.634 -1.023,5.702 -3.657,4.238 -4.539,-2.486 -16.617,-8.919 -18.375,-9.947 -3.442,-1.905 -1.023,-4.544 1.611,-3.301" style="fill:#231f20;fill-opacity:1;fill-rule:nonzero;stroke:none" id="path150"></path></g><g id="g152" transform="translate(305.4175,378.377)"><path d="m 0,0 c -53.209,-6.591 -92.954,-68.656 -69.826,-86.511 6.003,-4.539 16.617,-10.106 42.82,-1.029 -4.833,-8.048 -9.665,-11.857 -15.012,-11.123 -15.074,2.193 -34.178,-11.271 -30.369,-18.29 6.585,-12.299 62.654,-2.058 76.993,45.363 5.274,17.353 9.518,21.97 15.448,23.863 6.002,2.131 4.385,10.107 -0.882,9.665 -10.027,-0.802 -38.356,-2.927 -41.713,-3.215 -3.441,-0.288 -14.424,-7.614 -17.793,-9.66 -3.51,-2.204 -3.221,-8.783 3.59,-8.783 0.514,-0.079 9.738,0.509 21.076,2.046 -0.294,-1.176 -1.458,-5.861 -1.831,-7.246 -19.827,-12.954 -26.491,-8.931 -28.47,-7.98 -6.879,3.227 -1.385,43.181 38.208,54.598 7.173,2.046 12.226,-3.368 13.469,-5.708 4.681,-8.93 24.813,2.34 25.615,10.1 C 31.765,-9.225 21.224,2.486 0,0" style="fill:#f15026;fill-opacity:1;fill-rule:nonzero;stroke:none" id="path154"></path></g><g id="g156" transform="translate(328.0259,368.9375)"><path d="m 0,0 c -2.34,1.685 -8.049,5.924 -24.22,4.318 -16.176,-1.61 -39.745,-14.786 -54.458,-32.205 -14.785,-17.42 -20.346,-35.134 -11.19,-44.651 8.85,-9.072 27.728,-6.003 49.913,3.226 -6.008,-14.05 -13.469,-25.914 -25.18,-24.597 -11.496,1.181 -20.494,-5.262 -25.175,-11.999 10.751,-3.951 27.227,1.758 33.958,4.973 7.099,3.516 28.035,19.026 33.744,39.966 5.629,21.077 14.926,26.639 19.097,27.373 -10.099,-0.588 -41.276,-3.08 -41.276,-3.08 l -14.786,-8.925 c 0,0 13.983,0.803 28.543,3.216 -2.849,-6.002 -2.995,-9.58 -4.827,-16.096 -39.519,-26.351 -46.404,-1.324 -35.789,20.782 11.124,22.987 29.424,30.453 39.96,33.382 10.615,2.927 15.294,-2.929 18.664,-7.394 3.368,-4.465 12.88,2.849 15.368,4.754 C 4.69,-5.053 4.544,-3.289 0,0" style="fill:#231f20;fill-opacity:1;fill-rule:nonzero;stroke:none" id="path158"></path></g><g id="g160" transform="translate(352.3296,366.5186)"><path d="m 0,0 c 0,0 1.243,6.149 6.59,-0.44 0,0 3.657,-5.347 -0.588,-11.926 0,0 8.275,4.171 8.122,14.785 0,0 0,8.422 -8.709,13.316 0,0 -7.173,4.471 -13.102,-2.854 C -7.687,12.881 -14.419,0 0,0" style="fill:#ffffff;fill-opacity:1;fill-rule:nonzero;stroke:none" id="path162"></path></g><g id="g164" transform="translate(352.3296,366.5186)"><path d="m 0,0 c 0,0 1.243,6.149 6.59,-0.44 0,0 3.657,-5.347 -0.588,-11.926 0,0 8.275,4.171 8.122,14.785 0,0 0,8.422 -8.709,13.316 0,0 -7.173,4.471 -13.102,-2.854 C -7.687,12.881 -14.419,0 0,0 Z" style="fill:none;stroke:#ffffff;stroke-width:0.459;stroke-linecap:butt;stroke-linejoin:miter;stroke-miterlimit:4;stroke-dasharray:none;stroke-opacity:1" id="path166"></path></g><g id="g168" transform="translate(366.4536,353.0439)"><path d="m 0,0 c 0,0 7.105,17.578 14.419,12.893 0,0 1.831,-3.08 -3.657,-5.42 0,0 -11.423,-5.709 -13.763,-15.956 0,0 4.98,6.143 8.349,7.692 0,0 4.171,1.605 8.341,2.261 0,0 7.908,1.611 9.513,7.177 0,0 2.928,6.297 -3.73,6.879 0,0 0,4.974 -5.121,4.974 C 14.351,20.5 4.979,20.212 0,0" style="fill:#ffffff;fill-opacity:1;fill-rule:nonzero;stroke:none" id="path170"></path></g><g id="g172" transform="translate(366.4536,353.0439)"><path d="m 0,0 c 0,0 7.105,17.578 14.419,12.893 0,0 1.831,-3.08 -3.657,-5.42 0,0 -11.423,-5.709 -13.763,-15.956 0,0 4.98,6.143 8.349,7.692 0,0 4.171,1.605 8.341,2.261 0,0 7.908,1.611 9.513,7.177 0,0 2.928,6.297 -3.73,6.879 0,0 0,4.974 -5.121,4.974 C 14.351,20.5 4.979,20.212 0,0 Z" style="fill:none;stroke:#ffffff;stroke-width:0.459;stroke-linecap:butt;stroke-linejoin:miter;stroke-miterlimit:4;stroke-dasharray:none;stroke-opacity:1" id="path174"></path></g><g id="g176" transform="translate(473.8262,359.2051)"><path d="m 0,0 c 0,0 -8.93,9.507 -2.934,20.415 0,0 4.104,7.54 11.129,5.924 0,0 9.371,-2.34 6.885,-10.242 0,0 -0.441,1.464 -2.781,1.464 0,0 -3.522,-0.22 -3.522,-3.222 0,0 0,-3.95 3.957,-3.95 0,0 5.569,-0.288 6.145,7.392 0,0 -0.289,11.344 -12.871,11.344 0,0 -12.303,-1.023 -13.762,-15.074 0,0 -0.08,-8.789 6.578,-15.373 z" style="fill:#ffffff;fill-opacity:1;fill-rule:nonzero;stroke:none" id="path178"></path></g><g id="g180" transform="translate(473.8262,359.2051)"><path d="m 0,0 c 0,0 -8.93,9.507 -2.934,20.415 0,0 4.104,7.54 11.129,5.924 0,0 9.371,-2.34 6.885,-10.242 0,0 -0.441,1.464 -2.781,1.464 0,0 -3.522,-0.22 -3.522,-3.222 0,0 0,-3.95 3.957,-3.95 0,0 5.569,-0.288 6.145,7.392 0,0 -0.289,11.344 -12.871,11.344 0,0 -12.303,-1.023 -13.762,-15.074 0,0 -0.08,-8.789 6.578,-15.373 z" style="fill:none;stroke:#ffffff;stroke-width:0.378;stroke-linecap:butt;stroke-linejoin:miter;stroke-miterlimit:4;stroke-dasharray:none;stroke-opacity:1" id="path182"></path></g><g id="g184" transform="translate(470.5371,355.542)"><path d="m 0,0 c 0,0 -8.648,19.472 -20.201,19.472 0,0 -7.256,-0.887 -7.834,-7.105 0,0 -0.147,-5.341 5.416,-6.364 0,0 2.34,-0.294 3.582,1.311 0,0 -2.481,4.104 3.658,4.692 0,0 6.731,1.604 13.108,-11.135 0,0 1.175,-1.82 2.271,-0.871" style="fill:#ffffff;fill-opacity:1;fill-rule:nonzero;stroke:none" id="path186"></path></g><g id="g188" transform="translate(470.5371,355.542)"><path d="m 0,0 c 0,0 -8.648,19.472 -20.201,19.472 0,0 -7.256,-0.887 -7.834,-7.105 0,0 -0.147,-5.341 5.416,-6.364 0,0 2.34,-0.294 3.582,1.311 0,0 -2.481,4.104 3.658,4.692 0,0 6.731,1.604 13.108,-11.135 0,0 1.175,-1.82 2.271,-0.871 z" style="fill:none;stroke:#ffffff;stroke-width:0.378;stroke-linecap:butt;stroke-linejoin:miter;stroke-miterlimit:4;stroke-dasharray:none;stroke-opacity:1" id="path190"></path></g><g id="g192" transform="translate(325.4712,229.6484)"><path d="m 0,0 3.074,-3.511 -8.716,-8.342 c 0,0 -0.288,-1.023 0.373,-1.611 l 4.613,-4.974 -1.47,-1.322 -7.607,8.196 c 0,0 -0.809,1.763 0.141,2.792 z" style="fill:#ffffff;fill-opacity:1;fill-rule:nonzero;stroke:none" id="path194"></path></g><g id="g196" transform="translate(357.0884,203.1621)"><path d="m 0,0 -0.949,-1.616 4.973,-2.928 -6.296,-10.829 4.103,-2.781 6.658,11.129 5.054,-3.08 0.949,1.61 z" style="fill:#ffffff;fill-opacity:1;fill-rule:nonzero;stroke:none" id="path198"></path></g><g id="g200" transform="translate(378.3853,191.5869)"><path d="m 0,0 -0.588,-1.899 5.709,-1.605 -3.363,-12.152 4.539,-1.606 3.73,12.447 5.635,-1.764 0.515,1.899 z" style="fill:#ffffff;fill-opacity:1;fill-rule:nonzero;stroke:none" id="path202"></path></g><g id="g204" transform="translate(532.3828,234.1924)"><path d="m 0,0 1.605,-1.029 3.368,4.839 10.541,-6.89 2.933,3.956 -10.84,7.173 3.37,4.826 -1.606,1.029 z" style="fill:#ffffff;fill-opacity:1;fill-rule:nonzero;stroke:none" id="path206"></path></g><g id="g208" transform="translate(416.3677,183.832)"><path d="m 0,0 -12.876,0.441 c 0,0 -1.616,-0.147 -1.758,-3.216 l -0.22,-9.812 c 0,0 0.074,-1.893 2.561,-2.052 l 11.49,-0.435 0.148,1.905 -7.609,0.44 c 0,0 -1.684,-0.146 -1.762,1.606 l 0.078,3.804 9.445,-0.288 v 1.899 l -9.083,0.44 -0.067,2.634 c 0,0 -0.148,1.176 2.192,1.024 l 7.388,-0.289 z" style="fill:#ffffff;fill-opacity:1;fill-rule:nonzero;stroke:none" id="path210"></path></g><g id="g212" transform="translate(469.2871,186.0361)"><path d="m 0,0 4.246,1.459 c 0,0 -1.17,2.928 -7.094,2.928 0,0 -9.078,-0.588 -10.257,-8.937 0,0 -0.364,-7.749 8.052,-8.043 0,0 6.658,0.148 7.84,4.251 l 0.576,-1.323 4.399,1.323 -1.901,5.844 c 0,0 -0.152,1.47 -3.232,0.588 L -3.08,-3.662 -2.707,-5.426 1.25,-4.25 c 0,0 1.379,-5.415 -3.809,-5.855 0,0 -4.839,0 -5.642,5.126 0,0 -0.949,6.002 3.437,7.161 0,0 2.346,0.593 4.764,-2.182" style="fill:#ffffff;fill-opacity:1;fill-rule:nonzero;stroke:none" id="path214"></path></g><g id="g216" transform="translate(480.7051,194.5205)"><path d="M 0,0 8.055,-12.011 12.158,-9.513 3.951,2.775 Z" style="fill:#ffffff;fill-opacity:1;fill-rule:nonzero;stroke:none" id="path218"></path></g><g id="g220" transform="translate(503.3867,196.2725)"><path d="M 0,0 -0.576,7.025 5.279,3.956 Z m 0.893,11.423 c 0,0 -1.469,1.023 -3.233,-0.588 l -0.871,-0.734 1.459,-16.974 2.346,1.758 -0.141,3.221 6.731,4.828 3.076,-1.618 3.797,2.788 z M -159.106,6.155 c -3.295,-4.397 -7.76,-1.469 -7.76,-1.469 -3.59,3.521 0.582,8.495 0.582,8.495 3.81,3.951 7.472,0.876 7.472,0.876 3.075,-2.928 -0.294,-7.902 -0.294,-7.902 m 1.464,9.513 c 0,0 -6.737,5.12 -12.005,0.593 0,0 -6.37,-6.16 1.097,-12.604 0,0 5.782,-4.816 10.981,-2.041 0,0 4.754,2.041 4.172,8.196 0,0 -1.029,3.804 -4.245,5.856" style="fill:#ffffff;fill-opacity:1;fill-rule:nonzero;stroke:none" id="path222"></path></g><g id="g224" transform="translate(516.8613,218.084)"><path d="M 0,0 C 0,0 -2.633,-1.605 -0.293,-3.51 L 8.496,-12.446 12,-8.919 3.811,-0.871 15.08,-3.51 c 0,0 1.899,-0.594 2.781,0.435 l 2.057,2.052 c 0,0 0.576,0.587 -0.594,1.611 L 9.959,9.959 6.738,6.737 14.203,-0.577 3.811,1.47 c 0,0 -2.047,0.44 -2.495,-0.289 z" style="fill:#ffffff;fill-opacity:1;fill-rule:nonzero;stroke:none" id="path226"></path></g><g id="g228" transform="translate(552.2832,263.6055)"><path d="m 0,0 1.023,3.815 c 0,0 -2.921,0.876 -4.822,-2.492 0,0 -2.051,-2.635 -2.639,-8.196 0,0 0,-5.12 3.958,-5.12 0,0 3.367,-0.588 5.119,3.809 0,0 2.193,6.138 4.681,6.432 0,0 1.752,0 1.176,-3.368 0,0 -1.318,-5.563 -5.133,-4.681 L 2.34,-13.757 c 0,0 3.521,-1.029 6.008,3.074 0,0 2.488,3.37 2.34,9.225 0,0 -0.43,5.121 -5.856,4.25 0,0 -2.34,-0.882 -4.244,-5.42 0,0 -1.465,-5.121 -3.51,-4.685 0,0 -2.346,0.293 -0.588,4.973 0,0 0.875,2.498 3.51,2.34" style="fill:#ffffff;fill-opacity:1;fill-rule:nonzero;stroke:none" id="path230"></path></g><g id="g232" transform="translate(531.0645,492.2666)"><path d="m 0,0 c 3.369,1.164 67.475,19.686 73.049,20.997 5.555,1.322 7.607,0.661 3.656,-5.047 C 77.43,12.366 75.971,11.117 70.844,6.873 68.068,-0.153 57.67,-14.204 21.953,-24.31 19.031,-31.477 1.023,-52.848 -0.445,-54.312 c -2.916,-7.025 -10.836,-15.661 -10.836,-15.661 0.888,-1.323 3.08,-6.732 3.08,-6.732 10.389,-1.322 19.467,-3.956 19.467,-3.956 0,0 5.42,-1.611 1.322,-7.325 0,-3.504 -3.08,-5.923 -3.662,-7.681 -0.735,-1.82 -3.946,-3.437 -3.946,-3.437 -0.294,-2.487 -2.792,-5.279 -6.296,-5.279 -0.887,-2.261 -3.957,-3.211 -5.573,-3.211 -1.453,0.148 -2.922,-1.389 -5.121,-2.052 -2.193,-0.582 -4.386,0 -5.121,1.318 -0.588,1.39 -3.945,2.193 -4.533,3.73 -0.588,1.537 1.018,9.886 1.018,9.886 -2.34,2.119 -2.194,6.144 -4.385,6.726 -2.194,0.446 -2.93,2.933 -2.342,4.979 -2.057,0.594 -3.221,2.204 -3.221,2.204 -6.15,-1.762 -15.226,-1.395 -16.978,-0.593 -6.297,-2.199 -22.992,-5.047 -30.817,-4.833 -29.718,-25.467 -47.431,-28.542 -51.455,-25.027 -8.998,-4.544 -9.659,-0.147 -9.659,-0.147 -3.952,-2.487 -8.349,0.882 -3.511,4.245 4.827,3.369 55.108,49.326 55.108,49.326 0,0 6.076,7.325 11.203,5.866 5.187,-1.47 15.734,-3.814 29.131,2.046 0.582,5.415 -3.811,7.902 -4.393,12.147 -0.594,4.251 -2.346,7.754 -6.59,11.71 -4.244,3.958 -6.517,9.807 -0.435,8.785 6.002,-1.03 8.777,-8.055 17.566,-8.343 8.631,-0.294 5.697,-7.766 14.481,-11.423 10.107,5.861 15.08,18.736 16.843,27.52 C -8.053,-0.735 -3.361,-1.023 0,0" style="fill:#211d1d;fill-opacity:1;fill-rule:nonzero;stroke:none" id="path234"></path></g><g id="g236" transform="translate(519.2012,415.042)"><path d="M 0,0 C 0,-1.826 1.182,-1.685 1.764,-2.267 2.635,-3.295 3.223,-4.606 4.398,-4.03 5.563,-3.505 5.563,-5.709 4.975,-6.37 4.25,-6.806 5.279,-7.976 3.811,-9.659 c -1.471,-1.685 -2.34,-0.368 -3.957,-0.95 -1.752,-0.588 -2.487,2.554 -2.776,3.369 -0.152,0.87 -2.346,2.34 -3.521,4.16 -1.164,1.842 -0.135,3.153 0.3,3.301 0.434,0.146 0.588,0.728 0.141,1.175 -0.141,0.141 -1.164,1.238 0.293,2.555 C -4.104,5.635 0.158,0.949 0,0 M 70.414,87.912 C 67.627,87.754 57.393,83.809 55.922,86.296 54.459,88.342 12.887,76.631 9.66,75.467 6.59,74.291 3.662,73.121 3.369,68.147 2.934,63.168 -3.209,49.41 -6.143,46.042 c -3.07,-3.369 -6.878,-6.297 -8.484,-6.591 -1.764,-0.294 -2.635,-2.486 -2.635,-2.486 0,1.464 0.871,1.752 0,2.486 -0.892,0.73 -3.232,0.882 -4.396,2.634 -1.176,1.464 -3.811,6.149 -5.862,7.394 -0.435,-0.657 -1.316,-1.685 -2.345,-1.097 -1.024,0.44 -1.164,1.322 -1.448,2.046 -0.593,0.3 -0.892,0.3 -1.328,0.3 -0.588,-0.153 -0.14,-1.182 -0.14,-1.758 0,-0.588 0.576,-0.294 0.576,-1.03 0,-0.582 0,-0.734 -1.453,-0.801 -1.469,-0.069 -4.838,-1.538 -5.42,-2.855 -0.152,-1.47 0.135,-4.539 1.898,-7.319 1.764,-2.781 3.076,-6.003 3.223,-8.343 0.146,-2.272 1.463,-5.997 1.752,-6.443 -0.871,1.023 -2.047,1.531 -1.752,1.831 0.299,0.22 0.588,0.068 0.146,0.661 -0.441,0.588 -1.029,0.724 -1.605,0.43 -8.637,-3.946 -23.5,-3.369 -27.74,-1.685 -3.588,1.255 -4.024,0.521 -5.494,-0.361 -5.42,-3.504 -32.053,-29.199 -36.444,-32.499 -2.052,-1.459 -2.498,-2.635 -3.007,-3.211 -0.509,-0.588 -1.538,-2.272 4.532,0.576 -13.315,-10.976 -18.069,-15.509 2.42,-3.21 -7.02,-5.709 -5.054,-6.002 -6.732,-7.319 -1.678,-1.329 -5.85,-4.838 -1.678,-3.295 3.804,1.379 9.517,5.776 11.338,7.534 -6.071,-6.585 -1.979,-4.974 -4.098,-7.105 -1.317,-1.311 -4.312,-3.866 -0.944,-2.708 3.357,1.249 8.704,7.258 8.704,7.258 -1.537,-4.03 -5.562,-8.128 0.442,-4.324 -0.51,-0.949 -1.539,-1.91 0.734,-0.73 2.26,1.239 19.906,11.712 26.051,18.874 10.971,0.158 26.943,2.712 31.035,4.685 3.957,-1.611 12.434,-0.424 13.756,-0.142 1.324,0.294 1.465,0.735 0.588,1.758 -0.588,1.17 -1.469,3.589 -1.469,3.589 2.346,-2.854 8.342,-7.686 11.424,-7.025 -1.023,2.119 0,3.578 1.316,3.436 1.317,-0.146 3.369,-2.702 3.946,-3.589 0.734,-0.796 0.293,-2.193 -0.871,-2.339 -1.176,-0.075 -0.881,-0.373 0,-0.662 1.029,-0.435 2.634,-2.481 3.503,-2.187 1.182,0.288 1.618,1.022 1.618,-0.447 0,-1.464 -1.311,-1.893 -0.723,-2.187 0.576,-0.441 -0.447,-3.521 -1.764,-2.933 -1.318,0.592 -1.763,-3.076 -1.763,-3.804 0,-0.736 -2.047,-8.207 -0.43,-8.931 1.611,-0.882 2.486,0.588 2.486,0.588 1.17,-2.34 2.922,-2.781 4.975,-2.492 1.904,0.152 1.904,2.922 1.904,2.922 2.199,-2.34 3.957,-2.261 6.008,-1.318 1.752,0.888 1.453,2.934 1.453,2.934 2.934,-1.028 6.59,1.616 6.449,5.561 2.627,0 4.973,3.216 4.68,5.562 2.193,0.735 3.221,3.363 0.734,4.387 3.663,0.158 4.239,3.814 1.764,5.052 C 20.789,-3.437 2.934,0 2.934,0 c -0.735,3.001 -3.51,7.839 -3.51,7.839 1.459,1.165 8.783,9.948 11.705,16.974 7.467,8.195 19.906,22.913 22.4,29.718 9.811,2.046 23.864,7.975 24.598,8.275 0.723,0.362 1.018,0.949 0.287,1.029 -0.734,0.209 -1.758,0.209 -2.203,0 -0.289,-0.238 -1.318,0.209 0.588,0.655 2.051,0.576 9.222,4.319 5.273,3.504 0.735,0.882 2.34,2.634 -7.613,1.176 16.396,4.098 15.221,5.561 12.734,5.121 -3.658,-0.735 -3.369,-0.147 -2.488,0.882 0.582,1.028 -6.885,-0.656 -10.246,-1.318 9.219,2.776 19.906,6.659 12.01,6.659 2.041,3.295 -3.233,-0.288 -14.057,0 13.027,3.436 19.318,4.606 20.195,6.664 0.594,0.87 0.594,1.017 -2.193,0.734 M -27.66,49.546 c -0.149,0.158 -0.442,0.158 -0.442,0.158 -0.146,-0.294 -0.441,-0.734 -0.734,-0.949 0.44,0.067 0.881,0.288 1.176,0.791" style="fill:#ffffff;fill-opacity:1;fill-rule:nonzero;stroke:none" id="path238"></path></g><g id="g240" transform="translate(577.6152,478.877)"><path d="m 0,0 c -0.445,0.067 -1.021,0.209 -1.469,0.135 -5.996,-3.436 -23.129,-6.369 -25.91,-6.805 -2.932,-0.588 -0.588,-1.464 0,-1.616 0.594,-0.136 -3.803,-7.167 -6.584,-10.242 -2.781,-3.222 -16.244,-15.955 -17.273,-16.549 0,0 1.029,-2.04 1.029,-3.363 0,0 -1.176,2.051 -2.203,1.91 0.586,-0.881 0.734,-5.493 -0.295,-8.201 0.158,0.877 0,3.521 -0.871,4.312 -1.028,-2.774 -1.317,-8.116 -6.596,-11.185 -1.164,2.628 -3.51,4.821 -4.978,6.726 -0.577,-6.143 3.814,-13.175 4.978,-13.752 1.024,-0.734 3.229,-3.368 3.229,-4.838 0,-1.39 0.728,-1.763 1.752,-2.052 0.728,-0.141 9.076,-3.363 11.416,-4.685 0,0 -3.663,0.735 -3.075,-0.734 0.588,-1.606 2.057,-1.9 3.37,-3.946 -0.436,0 -1.752,0.441 -3.223,0.735 -1.606,0.147 1.471,-3.075 1.91,-3.663 0.43,-0.577 0.43,-0.881 0,-0.735 -0.439,0.158 -0.734,0.158 -2.203,0.588 -1.459,0.441 0.881,-0.876 0.588,-2.634 -0.143,-1.752 -3.799,-3.95 -4.828,-3.662 -0.881,0.158 -1.311,-1.311 -3.227,-1.973 -1.898,-0.734 -2.48,-0.073 -2.922,0.215 -0.582,0.447 -0.447,-0.141 -0.734,-0.582 -0.295,-0.441 -1.164,0.153 -2.34,-0.441 -1.324,-0.43 -1.324,1.911 -1.324,2.781 -0.141,0.735 -0.428,0.882 -0.735,0.158 -0.134,-0.735 -0.429,-0.446 -0.287,1.018 0,1.458 0.287,3.074 -0.435,4.098 h -0.147 c -1.318,0.592 -1.763,-3.076 -1.763,-3.804 0,-0.735 -2.047,-8.207 -0.43,-8.931 1.611,-0.882 2.486,0.588 2.486,0.588 1.17,-2.34 2.922,-2.781 4.975,-2.492 1.904,0.152 1.904,2.922 1.904,2.922 2.199,-2.34 3.957,-2.261 6.008,-1.318 1.752,0.888 1.453,2.934 1.453,2.934 2.934,-1.028 6.59,1.616 6.449,5.562 2.627,0 4.973,3.215 4.68,5.561 2.193,0.735 3.221,3.363 0.734,4.387 3.662,0.158 4.239,3.814 1.764,5.052 -2.498,1.25 -20.353,4.686 -20.353,4.686 -0.735,3.001 -3.51,7.839 -3.51,7.839 1.459,1.165 8.783,9.948 11.705,16.974 7.467,8.195 19.906,22.913 22.4,29.718 9.811,2.046 23.864,7.975 24.598,8.275 C 0.436,-0.667 0.73,-0.08 0,0 m -87.545,-64.926 c 1.322,-2.414 -1.31,-1.328 -3.51,-0.226 -2.199,1.249 -1.611,1.978 -7.172,-0.368 -5.709,-2.187 -21.884,-3.803 -25.322,-4.239 -3.363,-0.446 -2.197,0.583 -1.322,1.894 -3.221,-3.946 -19.981,-16.826 -27.875,-21.579 -0.522,-0.815 -1.109,-1.391 0.949,-0.369 2.26,1.239 19.906,11.712 26.051,18.874 10.971,0.158 26.943,2.712 31.035,4.685 3.957,-1.611 12.434,-0.424 13.756,-0.142 0.883,0.215 1.176,0.441 1.176,0.876 -1.176,1.024 -6.155,-0.876 -7.766,0.594 m -46.256,14.193 c 0.446,1.022 1.91,3.815 2.934,5.194 1.09,1.395 1.248,0.661 0.803,-0.588 -0.448,-1.164 -0.215,-1.091 1.543,1.396 1.677,2.414 4.972,3.589 8.41,2.34 3.369,-1.159 18.963,-1.39 28.039,2.933 0,0 0,0.147 -0.153,0.294 -0.441,0.588 -1.029,0.724 -1.605,0.43 -8.637,-3.946 -23.5,-3.369 -27.74,-1.685 -3.588,1.255 -4.024,0.521 -5.494,-0.361 -5.42,-3.504 -32.053,-29.199 -36.444,-32.499 -2.052,-1.459 -2.498,-2.635 -3.007,-3.211 0.294,-0.882 3.007,0.441 5.426,2.34 3.063,2.487 25.026,23.563 26.191,24.733 1.175,1.176 1.543,0.583 1.097,-1.316 m 84.465,58.335 c -1.17,0.514 -1.17,0.214 -1.17,0.214 -0.289,-0.135 -0.877,0.221 -0.142,0.809 0.736,0.588 3.509,1.396 4.974,0.808 1.469,-0.435 1.899,-0.662 1.606,-0.22 -0.295,0.361 -1.459,0.808 -2.34,0.949 -1.03,0 -0.588,0.361 1.176,1.312 4.396,2.204 33.664,9.077 42.74,10.84 v 0.147 c -1.463,2.046 -43.035,-9.665 -46.262,-10.829 -3.07,-1.176 -5.998,-2.346 -6.291,-7.319 -0.435,-4.98 -6.578,-18.738 -9.512,-22.106 -3.07,-3.369 -6.879,-6.297 -8.484,-6.591 -1.764,-0.294 -2.635,-2.486 -2.635,-2.486 0,1.464 0.871,1.752 0,2.486 -0.892,0.73 -3.232,0.882 -4.396,2.634 -1.176,1.464 -3.811,6.149 -5.862,7.394 -0.435,-0.657 -1.316,-1.685 -2.345,-1.097 -1.024,0.44 -1.164,1.322 -1.448,2.046 -0.593,0.3 -0.892,0.3 -1.328,0.3 -0.588,-0.153 -0.14,-1.182 -0.14,-1.758 0,-0.447 0.576,-0.447 0.576,-0.736 0.892,-0.734 1.469,-1.61 1.764,-2.344 0.287,-0.871 3.369,-2.488 4.679,-2.488 1.469,0.3 0.293,-1.17 -1.31,-1.463 -1.612,-0.289 -2.635,-1.312 -2.489,-1.606 0.289,-0.152 0.43,-1.904 1.018,-2.78 0.441,-0.736 1.023,-0.877 1.91,-0.294 0.871,0.576 2.635,0.146 4.092,-0.442 1.465,-0.734 1.176,-1.028 0.588,-1.537 -0.588,-0.52 -0.588,-1.605 -0.147,-1.096 0.576,0.576 1.606,1.096 1.606,0.508 0,-0.655 -1.752,-2.854 -1.899,-4.318 -0.148,-1.311 0.735,-2.707 1.606,-4.092 0.881,-1.611 1.762,-4.912 2.346,-2.866 0.734,1.911 0.734,7.84 1.468,10.033 0.582,2.272 1.752,4.386 4.391,4.98 2.635,0.434 10.096,8.929 14.053,16.984 3.808,8.049 3.214,15.509 7.607,16.024" style="fill:#e9e5e8;fill-opacity:1;fill-rule:nonzero;stroke:none" id="path242"></path></g><g id="g244" transform="translate(483.1914,463.7178)"><path d="M 0,0 C -0.588,0.582 -4.537,3.368 -6.289,4.397 -6.438,4.092 -6.438,3.662 -6.438,3.216 -6.289,2.634 -6.725,2.34 -7.318,2.34 c -0.295,0 -0.43,-0.148 -0.588,-0.148 1.029,-1.164 3.662,-3.729 3.814,-4.244 0.289,-0.582 0.582,-1.469 1.158,-0.582 0.594,0.729 2.346,1.458 3.082,1.605 C 0.883,-0.95 0.883,-0.588 0,0" style="fill:#ba2e69;fill-opacity:1;fill-rule:nonzero;stroke:none" id="path246"></path></g><g id="g248" transform="translate(484.9492,465.7695)"><path d="m 0,0 c -0.588,0.141 -5.414,3.069 -6.443,3.725 -0.875,0.667 -3.51,2.272 -4.532,3.006 -1.029,0.876 -3.742,1.752 -3.81,0.142 -0.069,-1.611 0.594,-1.826 0.881,-1.165 0.295,0.583 1.029,0.583 1.9,0 0.881,-0.588 5.867,-3.668 6.889,-4.323 1.017,-0.656 4.527,-2.996 4.822,-3.143 0.293,-0.147 0.887,-0.661 0.887,0.073 0,0.797 0,1.239 -0.594,1.685" style="fill:#f5f014;fill-opacity:1;fill-rule:nonzero;stroke:none" id="path250"></path></g><g id="g252" transform="translate(523.0117,409.5537)"><path d="m 0,0 c -0.441,-0.221 -1.471,0.515 -1.758,1.097 -0.447,0.519 -1.894,1.831 -2.629,2.046 -0.593,0.158 -2.056,0.813 -2.345,1.684 0,0.949 0.877,0 1.464,-0.141 0.288,-0.147 0.588,0.299 0.434,0.734 -0.146,0.356 -1.898,2.629 -2.773,2.934 -1.03,0.429 -1.618,-0.305 -1.03,-0.893 0.436,-0.436 0.881,-0.436 1.317,-0.87 0.3,-0.583 0,-0.583 -0.594,-0.882 -0.43,-0.289 -1.752,-1.905 -0.287,-2.928 1.469,-1.029 3.08,-4.397 3.221,-5.415 0.3,-1.17 1.464,-0.882 1.751,-0.588 0.153,0.294 0.448,0.294 0.6,-0.146 0,-0.289 0.729,-0.289 1.606,0.146 0.875,0.441 -0.153,0.735 -0.153,1.47 0,0.724 1.028,1.243 1.317,1.458 C 0.588,-0.146 0.588,0.3 0,0 m -8.49,-5.121 c -0.588,0 -0.875,0.294 -1.899,1.317 -1.029,0.876 -2.787,0.876 -3.369,1.611 -0.734,0.735 0.582,1.605 1.606,1.684 1.029,0.073 0.734,1.233 0.293,1.391 -0.44,0.294 -1.028,1.458 -2.192,2.046 -0.883,0.734 -1.176,-0.147 -0.588,-0.876 0,0 0.44,-0.436 0.588,-0.735 0.293,-0.435 0.293,-0.802 -0.148,-0.877 -0.44,-0.14 -1.61,-0.44 -2.78,-0.734 -1.175,-0.294 -1.029,-2.634 -0.3,-2.928 0.886,-0.367 1.617,-0.734 2.492,-1.605 0.736,-0.588 1.764,-3.662 2.193,-4.611 0.295,-0.957 1.471,-0.521 1.471,0 0,0.586 0.287,0.949 1.17,0.801 1.021,-0.14 2.633,0.442 1.316,1.024 -1.316,0.588 0,1.61 0.436,1.837 0.287,0.214 0.152,0.576 -0.289,0.655" style="fill:#cb9219;fill-opacity:1;fill-rule:nonzero;stroke:none" id="path254"></path></g><g id="g256" transform="translate(476.166,467.0859)"><path d="M 0,0 V 1.391 C -1.457,2.052 -3.357,3.075 -3.516,3.211 -3.803,3.369 -4.973,3.505 -3.945,2.34 -3.221,1.459 -1.904,0 -1.457,-0.655 -0.293,-0.655 0,-0.44 0,0" style="fill:#ba2e69;fill-opacity:1;fill-rule:nonzero;stroke:none" id="path258"></path></g></g></g></g></svg>