


<svg version="1.1" id="svg2" xml:space="preserve" width="200.77168" height="138.17999" viewBox="0 0 200.77167 138.18" xmlns="http://www.w3.org/2000/svg"><defs id="defs6"><clipPath clipPathUnits="userSpaceOnUse" id="clipPath16"><path d="M 0,595.275 H 841.89 V 0 H 0 Z" id="path14"></path></clipPath></defs><g id="g8" transform="matrix(1.3333333,0,0,-1.3333333,-548.42077,520.7065)"><g id="g10"><g id="g12" clip-path="url(#clipPath16)"><g id="g444" transform="matrix(1.2704335,0,0,1.2704335,411.40034,367.03666)" style="stroke-width:0.787133"><path d="m 0,0 c 0,0 1.613,17.649 22.397,14.513 0,0 8.065,-1.344 13.437,-7.703 0,0 5.107,5.374 24.281,10.212 0,0 15.589,4.03 35.386,-1.254 l 1.881,-0.269 c 0,0 -2.51,-18.813 -2.598,-19.53 l -0.178,-2.688 c 0,0 -24.189,3.405 -35.659,-4.748 0,0 0.988,-1.255 3.139,-1.523 0,0 0.984,-0.359 0.984,-0.806 0,0 0.627,0.716 1.972,0.806 0,0 28.755,4.299 29.473,4.569 l -0.986,-10.214 c 0,0 3.406,-0.268 8.869,0.628 0,0 1.793,0.627 2.687,-0.09 0,0 2.868,3.405 7.974,2.867 0,0 5.825,-0.627 5.375,-6.45 0,0 0.359,-3.584 -3.851,-5.018 0,0 -0.178,-5.105 -7.973,-5.105 0,0 -0.268,-3.225 -6.36,-3.853 0,0 -7.08,-0.895 -8.87,-0.895 l -1.165,-11.468 c 0,0 0,-3.584 -3.673,-5.286 0,0 -13.709,-10.034 -30.639,-9.765 0,0 -17.826,-0.895 -30.548,12.632 0,0 -9.228,8.511 -7.347,25.98 0,0 -19.35,6.092 -18.008,24.458" style="fill:#231f20;fill-opacity:1;fill-rule:nonzero;stroke:none;stroke-width:0.787133" id="path446"></path></g><g id="g448" transform="matrix(1.2704335,0,0,1.2704335,554.69076,339.83529)" style="stroke-width:0.787133"><path d="m 0,0 c 0,0 0,-0.583 -3.269,-1.209 0,0 -0.49,-0.06 -0.76,0.344 0,0 -0.046,0.416 0.315,0.552 0,0 0.445,0.583 2.463,0.895 0,0 0.535,0.179 1.162,0 0,0 0.421,-0.103 0.089,-0.582 m -4.118,-4.57 c 0,0 -0.673,-0.492 -1.613,-0.537 0,0 -0.491,-0.09 -0.314,0.448 0,0 0.226,0.672 1.927,0.941 0,0 0.536,-0.016 0.536,-0.179 0,0 0.182,-0.344 -0.536,-0.673 m -4.748,2.106 c -0.581,-0.493 -5.375,-1.523 -5.375,-1.523 -0.895,-0.045 -0.806,-0.449 -0.806,-0.449 -0.046,-0.403 0.447,-0.493 0.447,-0.493 1.254,0 4.614,-0.088 4.614,-0.088 0.803,-0.134 0.043,-0.627 0.043,-0.627 -0.715,-0.539 -5.193,-1.567 -5.193,-1.567 -0.496,-0.134 -0.12,-0.554 -0.12,-0.554 1.433,-0.358 4.062,-0.358 4.062,-0.358 -5.437,-1.792 -11.379,-1.374 -11.379,-1.374 l 0.627,6.72 c 4.659,-0.403 12.63,0.761 12.63,0.761 0.496,0.18 0.629,0.09 0.629,0.09 0.357,-0.358 -0.179,-0.538 -0.179,-0.538 m -19.353,-23.965 c -7.615,-6.449 -19.527,-8.69 -19.527,-8.69 -15.053,-3.942 -28.581,3.853 -28.581,3.853 -15.139,7.525 -13.169,26.159 -13.169,26.159 7.434,-3.225 21.322,-6.361 21.322,-6.361 0.898,-3.941 2.778,-7.794 9.587,-10.839 6.808,-3.047 14.693,0.895 14.693,0.895 l 2.688,18.993 -6.99,-0.627 0.538,5.913 c 3.85,0.627 23.203,3.494 23.203,3.494 z m -17.617,13.826 -0.836,-6.569 c 0,0 -6.687,-3.166 -12.542,0.298 0,0 -5.078,2.092 -5.973,7.943 0,0 9.196,-2.686 19.351,-1.672 M -84.746,0.27 c 5.195,0.626 6.179,4.388 6.179,4.388 -9.317,-6.092 -18.006,-0.717 -18.006,-0.717 -4.839,2.867 -1.969,7.795 -1.969,7.795 6.629,6.361 15.945,0.537 15.945,0.537 -5.914,6.093 -14.155,4.658 -14.155,4.658 -8.242,-1.612 -5.823,-8.689 -5.823,-8.689 -7.346,7.972 -3.853,15.499 -3.853,15.499 5.646,11.467 17.29,6.002 17.29,6.002 0,-2.151 -3.046,-3.494 -3.046,-3.494 -5.016,-2.688 -8.062,1.075 -8.062,1.075 1.972,-3.493 6.093,-3.136 6.093,-3.136 5.554,-0.09 7.435,4.479 7.435,4.479 10.929,-4.121 11.288,-19.082 11.288,-19.082 2.599,2.868 0.268,9.228 0.268,9.228 8.869,-10.571 22.665,-15.588 22.665,-15.588 l -1.345,-10.123 c 2.511,-0.447 7.441,0.09 7.441,0.09 l -0.451,-2.957 c -10.393,-0.986 -21.681,2.687 -21.681,2.687 -9.852,3.315 -16.213,7.348 -16.213,7.348 M -21.679,32.25 -23.2,20.425 c -24.546,2.779 -36.373,-7.883 -36.373,-7.883 -8.692,5.195 -13.973,11.826 -13.973,11.826 27.412,16.036 51.867,7.882 51.867,7.882 M 3.226,1.163 C 1.795,4.389 -1.61,3.673 -1.61,3.673 -7.076,2.688 -6.985,0.27 -6.985,0.27 -8.239,1.702 -10.031,0.985 -10.031,0.985 -14.691,-0.09 -21.946,0.27 -21.946,0.27 l 1.076,9.853 c -8.782,-1.881 -26.876,-4.121 -26.876,-4.121 -1.613,-0.18 -2.24,-1.344 -2.24,-1.344 -0.091,0.717 -1.523,1.254 -1.523,1.254 -6.451,2.688 -7.437,3.585 -7.437,3.585 l 0.716,0.358 c 12.273,10.749 37.626,7.613 37.626,7.613 l 1.972,17.202 c -31.625,9.317 -56.08,-7.346 -56.08,-7.346 -2.419,-1.255 -1.704,-4.12 -1.704,-4.12 -4.029,6.718 -11.735,9.316 -11.735,9.316 -17.023,6.093 -21.5,-8.601 -21.5,-8.601 -2.599,-11.377 4.657,-17.2 4.657,-17.2 8.869,-9.228 17.47,-7.705 17.47,-7.705 1.433,-1.971 6.272,-3.943 6.272,-3.943 -1.166,0.27 -6.988,2.062 -6.988,2.062 -4.032,2.06 -4.12,-2.746 -4.12,-2.746 -1.196,-15.53 7.881,-22.817 7.881,-22.817 10.989,-12.064 29.981,-10.868 29.981,-10.868 16.845,1.552 26.22,8.898 26.22,8.898 3.526,2.09 3.167,4.062 3.167,4.062 l 1.493,13.616 c 6.031,0 11.883,1.075 11.883,1.075 3.646,0.3 3.705,3.524 3.705,3.524 0.298,0.18 0.477,0.477 0.477,0.477 2.152,-1.134 4.329,0.031 4.329,0.031 3.224,1.074 2.691,4.032 2.691,4.032 4.657,0.985 3.759,4.746 3.759,4.746" style="fill:#d3d2d2;fill-opacity:1;fill-rule:nonzero;stroke:none;stroke-width:0.787133" id="path450"></path></g><g id="g452" transform="matrix(1.2704335,0,0,1.2704335,554.69076,339.83529)" style="stroke-width:0.787133"><path d="m 0,0 c 0,0 0,-0.583 -3.269,-1.209 0,0 -0.49,-0.06 -0.76,0.344 0,0 -0.046,0.416 0.315,0.552 0,0 0.445,0.583 2.463,0.895 0,0 0.535,0.179 1.162,0 0,0 0.421,-0.103 0.089,-0.582 z m -4.118,-4.57 c 0,0 -0.673,-0.492 -1.613,-0.537 0,0 -0.491,-0.09 -0.314,0.448 0,0 0.226,0.672 1.927,0.941 0,0 0.536,-0.016 0.536,-0.179 0,0 0.182,-0.344 -0.536,-0.673 z m -4.748,2.106 c -0.581,-0.493 -5.375,-1.523 -5.375,-1.523 -0.895,-0.045 -0.806,-0.449 -0.806,-0.449 -0.046,-0.403 0.447,-0.493 0.447,-0.493 1.254,0 4.614,-0.088 4.614,-0.088 0.803,-0.134 0.043,-0.627 0.043,-0.627 -0.715,-0.539 -5.193,-1.567 -5.193,-1.567 -0.496,-0.134 -0.12,-0.554 -0.12,-0.554 1.433,-0.358 4.062,-0.358 4.062,-0.358 -5.437,-1.792 -11.379,-1.374 -11.379,-1.374 l 0.627,6.72 c 4.659,-0.403 12.63,0.761 12.63,0.761 0.496,0.18 0.629,0.09 0.629,0.09 0.357,-0.358 -0.179,-0.538 -0.179,-0.538 z m -19.353,-23.965 c -7.615,-6.449 -19.527,-8.69 -19.527,-8.69 -15.053,-3.942 -28.581,3.853 -28.581,3.853 -15.139,7.525 -13.169,26.159 -13.169,26.159 7.434,-3.225 21.322,-6.361 21.322,-6.361 0.898,-3.941 2.778,-7.794 9.587,-10.839 6.808,-3.047 14.693,0.895 14.693,0.895 l 2.688,18.993 -6.99,-0.627 0.538,5.913 c 3.85,0.627 23.203,3.494 23.203,3.494 z m -17.617,13.826 -0.836,-6.569 c 0,0 -6.687,-3.166 -12.542,0.298 0,0 -5.078,2.092 -5.973,7.943 0,0 9.196,-2.686 19.351,-1.672 z M -84.746,0.27 c 5.195,0.626 6.179,4.388 6.179,4.388 -9.317,-6.092 -18.006,-0.717 -18.006,-0.717 -4.839,2.867 -1.969,7.795 -1.969,7.795 6.629,6.361 15.945,0.537 15.945,0.537 -5.914,6.093 -14.155,4.658 -14.155,4.658 -8.242,-1.612 -5.823,-8.689 -5.823,-8.689 -7.346,7.972 -3.853,15.499 -3.853,15.499 5.646,11.467 17.29,6.002 17.29,6.002 0,-2.151 -3.046,-3.494 -3.046,-3.494 -5.016,-2.688 -8.062,1.075 -8.062,1.075 1.972,-3.493 6.093,-3.136 6.093,-3.136 5.554,-0.09 7.435,4.479 7.435,4.479 10.929,-4.121 11.288,-19.082 11.288,-19.082 2.599,2.868 0.268,9.228 0.268,9.228 8.869,-10.571 22.665,-15.588 22.665,-15.588 l -1.345,-10.123 c 2.511,-0.447 7.441,0.09 7.441,0.09 l -0.451,-2.957 c -10.393,-0.986 -21.681,2.687 -21.681,2.687 -9.852,3.315 -16.213,7.348 -16.213,7.348 z M -21.679,32.25 -23.2,20.425 c -24.546,2.779 -36.373,-7.883 -36.373,-7.883 -8.692,5.195 -13.973,11.826 -13.973,11.826 27.412,16.036 51.867,7.882 51.867,7.882 z M 3.226,1.163 C 1.795,4.389 -1.61,3.673 -1.61,3.673 -7.076,2.688 -6.985,0.27 -6.985,0.27 -8.239,1.702 -10.031,0.985 -10.031,0.985 -14.691,-0.09 -21.946,0.27 -21.946,0.27 l 1.076,9.853 c -8.782,-1.881 -26.876,-4.121 -26.876,-4.121 -1.613,-0.18 -2.24,-1.344 -2.24,-1.344 -0.091,0.717 -1.523,1.254 -1.523,1.254 -6.451,2.688 -7.437,3.585 -7.437,3.585 l 0.716,0.358 c 12.273,10.749 37.626,7.613 37.626,7.613 l 1.972,17.202 c -31.625,9.317 -56.08,-7.346 -56.08,-7.346 -2.419,-1.255 -1.704,-4.12 -1.704,-4.12 -4.029,6.718 -11.735,9.316 -11.735,9.316 -17.023,6.093 -21.5,-8.601 -21.5,-8.601 -2.599,-11.377 4.657,-17.2 4.657,-17.2 8.869,-9.228 17.47,-7.705 17.47,-7.705 1.433,-1.971 6.272,-3.943 6.272,-3.943 -1.166,0.27 -6.988,2.062 -6.988,2.062 -4.032,2.06 -4.12,-2.746 -4.12,-2.746 -1.196,-15.53 7.881,-22.817 7.881,-22.817 10.989,-12.064 29.981,-10.868 29.981,-10.868 16.845,1.552 26.22,8.898 26.22,8.898 3.526,2.09 3.167,4.062 3.167,4.062 l 1.493,13.616 c 6.031,0 11.883,1.075 11.883,1.075 3.646,0.3 3.705,3.524 3.705,3.524 0.298,0.18 0.477,0.477 0.477,0.477 2.152,-1.134 4.329,0.031 4.329,0.031 3.224,1.074 2.691,4.032 2.691,4.032 4.657,0.985 3.759,4.746 3.759,4.746 z" style="fill:none;stroke:#231f20;stroke-width:0.157427;stroke-linecap:butt;stroke-linejoin:miter;stroke-miterlimit:4;stroke-dasharray:none;stroke-opacity:1" id="path454"></path></g></g></g></g></svg>
